<svg xmlns="http://www.w3.org/2000/svg" viewBox="0 0 283.61 117.7"><defs><style>.cls-1{fill:#dbdbdb;}.cls-2{fill:#000005;}</style></defs><title>Ресурс 1</title><g id="Слой_2" data-name="Слой 2"><g id="Слой_1-2" data-name="Слой 1"><circle class="cls-1" cx="224.76" cy="58.85" r="58.85"/><path class="cls-2" d="M0,8.53H13.92V57.35H44.09V68.7H0Z"/><path class="cls-2" d="M98.5,57.52V68.7H51.92V8.53H97.38V19.7H65.75V32.77H93.69V43.6H65.75V57.52Z"/><path class="cls-2" d="M166.58,8.53l-26,60.17H126.78l-26-60.17h15.05l18.3,43,18.57-43Z"/><path class="cls-2" d="M52.9,78.85h7.53v32.54H52.9Z"/><path class="cls-2" d="M98,78.85v32.54H91.81L75.59,91.63v19.76H68.15V78.85h6.23L90.56,98.61V78.85Z"/><path class="cls-2" d="M136.81,78.85l-14.08,32.54h-7.44l-14-32.54h8.13l9.91,23.24,10-23.24Z"/><path class="cls-2" d="M164.71,105.35v6h-25.2V78.85H164.1v6H147V92H162.1v5.85H147v7.54Z"/><path class="cls-2" d="M168.14,108.18l2.56-5.67a19.12,19.12,0,0,0,10.74,3.39c4.46,0,6.28-1.48,6.28-3.48,0-6.09-18.93-1.91-18.93-14,0-5.53,4.47-10.13,13.72-10.13a21.8,21.8,0,0,1,11.3,2.88l-2.33,5.72a18.36,18.36,0,0,0-9-2.56c-4.46,0-6.18,1.68-6.18,3.72,0,6,18.92,1.86,18.92,13.81,0,5.44-4.51,10.09-13.81,10.09C176.23,112,171,110.41,168.14,108.18Z"/><path class="cls-2" d="M206.63,85H196.22V78.85h28.36V85H214.17v26.41h-7.54Z"/></g></g></svg>