<svg width="28" height="32" viewBox="0 0 28 32" fill="none" xmlns="http://www.w3.org/2000/svg">
<g clip-path="url(#clip0_141_550)">
<path d="M0.855225 0.977386V12.4987C0.855225 20.2286 4.79226 27.4162 14 31.0226C23.2078 27.4162 27.1448 20.2286 27.1448 12.4987V0.977386H0.855225Z" fill="#50653E"/>
<path d="M1.7832 1.90546V12.4991C1.7832 19.8145 5.35928 26.4738 14.0001 30.001C22.6409 26.4738 26.217 19.8145 26.217 12.4991V1.90546H1.7832Z" fill="#50653E" stroke="black" stroke-width="0.0375565" stroke-linecap="round" stroke-linejoin="round"/>
<path fill-rule="evenodd" clip-rule="evenodd" d="M14.0001 26.1218C13.0462 24.9791 12.3145 23.6648 11.8807 22.3644H5.35187V5.78695C9.90909 7.86505 9.26811 13.9048 8.61584 18.7058H12.1298L12.0097 14.1292C11.9204 12.4738 11.8722 10.8055 11.737 9.16784C11.5369 6.74428 12.3208 4.64758 14.0001 2.81436C15.6795 4.64758 16.4633 6.74428 16.2633 9.16784C16.1281 10.8055 16.0798 12.4738 15.9905 14.1292L15.8704 18.7058H19.3844C18.7321 13.9048 18.0912 7.86505 22.6484 5.78695V22.3644H16.1195C15.6858 23.6648 14.9541 24.9791 14.0001 26.1218Z" fill="#FFCC00"/>
<g opacity="0.15">
<path fill-rule="evenodd" clip-rule="evenodd" d="M14.0001 26.1219C13.0462 24.9791 12.3145 23.6648 11.8807 22.3644H5.35187V5.78698C9.90909 7.86508 9.26812 13.9049 8.61585 18.7058H12.1298L12.0097 14.1292C11.9204 12.4739 11.8722 10.8056 11.737 9.16787C11.5369 6.74431 12.3208 4.64761 14.0001 2.81439C15.6795 4.64761 16.4633 6.74431 16.2633 9.16787C16.1281 10.8056 16.0798 12.4739 15.9905 14.1292L15.8704 18.7058H19.3844C18.7322 13.9049 18.0912 7.86508 22.6484 5.78698V22.3644H16.1195C15.6858 23.6648 14.9541 24.9791 14.0001 26.1219Z" stroke="black" stroke-width="0.82363"/>
<path fill-rule="evenodd" clip-rule="evenodd" d="M14.0754 2.89833L13.2747 3.69906C13.0187 4.05082 12.7936 4.41177 12.5993 4.78233L14.2656 3.11602C14.2037 3.04306 14.1402 2.97048 14.0754 2.89833ZM14.5647 3.48493L12.1025 5.94711C12.0396 6.13593 11.9844 6.32722 11.9364 6.52076L14.739 3.71814C14.6824 3.63998 14.6243 3.56218 14.5647 3.48493ZM15.0104 4.11503L11.779 7.3464C11.7587 7.49703 11.7424 7.6489 11.7307 7.80231L15.1668 4.36619C15.1163 4.28197 15.0642 4.19824 15.0104 4.11503ZM15.4071 4.79413L11.7066 8.49468C11.7066 8.49474 11.7066 8.49479 11.7066 8.49485C11.7075 8.62554 11.712 8.75745 11.7189 8.89012L15.5423 5.06649C15.4989 4.97518 15.4542 4.8843 15.4071 4.79414V4.79413ZM15.7455 5.53162L11.7633 9.51374C11.7729 9.64027 11.7823 9.76682 11.791 9.89365L15.8566 5.82824C15.8216 5.72871 15.7846 5.62985 15.7455 5.53162ZM5.65721 5.9374L5.35187 6.24275V6.65031L5.9197 6.08231C5.83449 6.03228 5.74675 5.98418 5.65721 5.9374ZM22.0259 6.11434C21.1968 6.61307 20.5732 7.26596 20.1112 8.0289L22.0259 6.11434ZM22.6483 6.15962L19.5209 9.28716C19.452 9.48098 19.39 9.67924 19.3346 9.88136L22.6483 6.56783V6.15962ZM16.0159 6.33704L11.8308 10.5221C11.8383 10.6506 11.8456 10.7792 11.8526 10.9079L16.0975 6.66309C16.0726 6.5537 16.0455 6.44493 16.0159 6.33704ZM6.32662 6.34383L5.35187 7.31858V7.7263L6.55967 6.51866C6.48385 6.45902 6.40669 6.40033 6.32662 6.34383ZM6.91903 6.82724L5.35187 8.39441V8.80213L7.12475 7.02924C7.05848 6.96024 6.98947 6.89324 6.91903 6.82724ZM16.2041 7.22461L11.8854 11.5433C11.8918 11.6729 11.8979 11.8027 11.904 11.9324L16.2499 7.5864C16.2373 7.46494 16.2222 7.34431 16.2041 7.22461ZM22.6483 7.23561L19.1399 10.7442C19.1109 10.9043 19.0848 11.066 19.0622 11.2295L22.6483 7.6435V7.23561ZM7.43722 7.38489L5.35187 9.47024V9.87796L7.61415 7.61584C7.55719 7.53745 7.49825 7.46042 7.43722 7.38489ZM7.88149 8.01645L5.35187 10.5461V10.9538L8.03012 8.27554C7.98238 8.18793 7.93319 8.10137 7.88149 8.01645ZM16.2903 8.21424L11.9336 12.5709C11.9396 12.7007 11.946 12.8304 11.9521 12.9602L16.2911 8.62115C16.2941 8.48449 16.2939 8.34879 16.2903 8.21424H16.2903ZM22.6483 8.31144L18.9823 11.9775C18.9705 12.1224 18.9606 12.2682 18.9527 12.4149L22.6483 8.71933V8.31144ZM8.25218 8.72159L5.35187 11.6219V12.0296L8.37364 9.00801C8.33495 8.91138 8.29469 8.81575 8.25218 8.72159ZM16.2509 9.32986L11.9835 13.5973C11.9899 13.7266 11.9957 13.8562 12.0025 13.9854L16.2172 9.77073C16.2276 9.6235 16.2393 9.47666 16.2509 9.32986ZM22.6483 9.38727L18.9285 13.1071C18.9265 13.2432 18.9256 13.3798 18.9264 13.5169L22.6483 9.79515V9.38727ZM8.55121 9.49838L5.35187 12.6977V13.1054L8.64583 9.81133C8.61601 9.70599 8.5847 9.60147 8.55121 9.49838ZM8.78055 10.3449L5.35187 13.7736V14.1813L8.84912 10.684C8.82784 10.5701 8.80531 10.4568 8.78055 10.3449ZM22.6483 10.4631L18.9408 14.1708C18.9452 14.3012 18.9503 14.4316 18.9568 14.5623L22.6483 10.871V10.4631ZM16.1715 10.4851L12.0229 14.6336L12.0333 15.0307L16.1469 10.9172C16.1547 10.773 16.1629 10.629 16.1715 10.4851ZM8.94163 11.2596L5.35187 14.8494V15.2571L8.9853 11.6237C8.97223 11.5016 8.95796 11.3801 8.94163 11.2596ZM22.6483 11.5389L18.9953 15.1921C19.0042 15.3184 19.0137 15.4447 19.0241 15.5709L22.6483 11.9468V11.5389ZM16.1106 11.6216L12.0504 15.682L12.0609 16.079L16.0908 12.0494C16.0974 11.9068 16.1037 11.7641 16.1106 11.6216ZM9.03738 12.2397L5.35187 15.9252V16.3329L9.05856 12.6262C9.05326 12.4967 9.04565 12.368 9.03738 12.2397ZM22.6483 12.6152L19.0797 16.1838C19.0919 16.3073 19.1044 16.4304 19.1175 16.5534L22.6483 13.0226V12.6152ZM16.0581 12.7501L12.0779 16.7303L12.0884 17.1274L16.0374 13.1784C16.0441 13.0356 16.0515 12.893 16.0581 12.7501ZM9.07247 13.2804L5.35187 17.001V17.4088L9.07102 13.6896C9.0729 13.5528 9.07324 13.4164 9.07247 13.2804ZM22.6483 13.6911L19.1861 17.1532C19.2005 17.2749 19.2151 17.3961 19.2301 17.5168L22.6483 14.0986V13.6911ZM16.0028 13.8813L12.1054 17.7786L12.1159 18.1757L15.9858 14.3058L15.9905 14.1294C15.9949 14.0468 15.9985 13.9639 16.0028 13.8813H16.0028ZM9.05177 14.377L5.35187 18.0769V18.4846L9.02994 14.8064C9.03828 14.6631 9.04569 14.5199 9.05177 14.377ZM22.6483 14.7669L19.3055 18.1097C19.3213 18.2302 19.3372 18.3504 19.3532 18.4696L22.6483 15.1745V14.7669ZM15.9678 14.992L8.59553 22.3645H9.00277L15.9568 15.4106L15.9678 14.992ZM8.97996 15.5246L5.35187 19.1527V19.5604L8.94131 15.971C8.95516 15.8224 8.96789 15.6736 8.97996 15.5246ZM22.6483 15.8427L16.1263 22.3645H16.5341L22.6483 16.2503V15.8427ZM15.9389 16.0968L9.67136 22.3645H10.0786L15.9279 16.5154L15.9389 16.0968ZM8.86513 16.7158L5.35187 20.229V20.6361L8.81112 17.1768C8.82937 17.0232 8.84807 16.8706 8.86513 16.7158ZM22.6483 16.9186L17.2022 22.3645H17.6099L22.6483 17.3261V16.9186ZM15.9098 17.2018L10.7472 22.3645H11.1544L15.8988 17.6203L15.9098 17.2018ZM8.71731 17.9394L5.35187 21.3048V21.7121L8.65505 18.4089C8.67592 18.2531 8.69685 18.0973 8.71731 17.9394ZM22.6483 17.9944L18.278 22.3645H18.6857L22.6483 18.402V17.9944ZM15.8808 18.3065L11.823 22.3645H11.8806C11.9094 22.4508 11.9398 22.5372 11.9712 22.6236L15.8891 18.7058H15.8703L15.8808 18.3065ZM9.0267 18.7058L5.3682 22.3645H5.77512L9.43394 18.7058H9.0267ZM10.1025 18.7058L6.44387 22.3645H6.85111L10.5098 18.7058H10.1025ZM11.1784 18.7058L7.5197 22.3645H7.92694L11.5856 18.7058H11.1784ZM16.5577 18.7058L12.1591 23.1044C12.1987 23.199 12.2402 23.2935 12.2828 23.3878L16.9649 18.7058H16.5577ZM17.6335 18.7058L12.499 23.8403C12.5443 23.9298 12.5911 24.019 12.6389 24.108L18.0411 18.7058H17.6335ZM18.7093 18.7058L12.8798 24.5354C12.93 24.6203 12.9815 24.7047 13.0341 24.7887L19.1169 18.7058H18.7093ZM22.6483 19.0702L19.3538 22.3645H19.7615L22.6483 19.4778V19.0702ZM22.6483 20.1461L20.4297 22.3645H20.8374L22.6483 20.5536V20.1461ZM22.6483 21.2219L21.5055 22.3645H21.9132L22.6483 21.6294V21.2219ZM22.6483 22.2977L22.5815 22.3645H22.6483V22.2977ZM16.1158 22.375L13.2985 25.1924C13.3534 25.2729 13.4092 25.353 13.4662 25.4324L15.8732 23.0253C15.962 22.8088 16.0433 22.5917 16.1158 22.375ZM15.2417 24.325L13.7526 25.8142C13.812 25.8904 13.8724 25.9658 13.9338 26.0406L14.5144 25.46C14.7798 25.0927 15.0227 24.7126 15.2417 24.325Z" fill="black"/>
</g>
<path fill-rule="evenodd" clip-rule="evenodd" d="M14.0001 26.1218C13.0462 24.9791 12.3145 23.6648 11.8807 22.3644H5.35187V5.78695C9.90909 7.86505 9.26811 13.9048 8.61584 18.7058H12.1298L12.0097 14.1292C11.9204 12.4738 11.8722 10.8055 11.737 9.16784C11.5369 6.74428 12.3208 4.64758 14.0001 2.81436C15.6795 4.64758 16.4633 6.74428 16.2633 9.16784C16.1281 10.8055 16.0798 12.4738 15.9905 14.1292L15.8704 18.7058H19.3844C18.7321 13.9048 18.0912 7.86505 22.6484 5.78695V22.3644H16.1195C15.6858 23.6648 14.9541 24.9791 14.0001 26.1218V26.1218Z" stroke="#FFCC00" stroke-width="0.288271"/>
</g>
<defs>
<clipPath id="clip0_141_550">
<rect width="26.2896" height="30.0452" fill="white" transform="translate(0.855225 0.977386)"/>
</clipPath>
</defs>
</svg>
