<?xml version="1.0" encoding="UTF-8" standalone="no"?>
<svg id="Capa_1" enable-background="new 0 0 512 512" height="512" viewBox="0 0 512 512" width="512" xmlns="http://www.w3.org/2000/svg" fill="#cdb393"><path d="m451 62v-17c0-24.813-20.187-45-45-45s-45 20.187-45 45v17h-60v-17c0-24.813-20.187-45-45-45s-45 20.187-45 45v17h-60v-17c0-24.813-20.187-45-45-45s-45 20.187-45 45v17h-61v450h512v-450zm-60-17c0-8.271 6.729-15 15-15s15 6.729 15 15v17h-30zm-150 0c0-8.271 6.729-15 15-15s15 6.729 15 15v17h-30zm-150 0c0-8.271 6.729-15 15-15s15 6.729 15 15v17h-30zm-30 47v30h30v-30h120v30h30v-30h120v30h30v-30h91v60h-452v-60zm-31 390v-300h452v300z"/><path d="m91 242h90v30h-90z"/><path d="m211 242h90v30h-90z"/><path d="m331 242h90v30h-90z"/><path d="m91 302h90v30h-90z"/><path d="m211 302h90v30h-90z"/><path d="m331 302h90v30h-90z"/><path d="m91 362h90v30h-90z"/><path d="m211 362h90v30h-90z"/><path d="m331 362h90v30h-90z"/></svg>