<?xml version="1.0" encoding="UTF-8" standalone="no"?>
<svg width="520" height="521" viewBox="0 0 520 521" fill="none" xmlns="http://www.w3.org/2000/svg">
<path d="M478.517 368.623L478.507 368.626L478.497 368.63L347.998 414.416C346.463 414.953 344.855 415.246 343.231 415.284C345.117 406.24 343.67 396.784 339.105 388.686C339.103 388.684 339.102 388.682 339.101 388.68L338.443 387.487L338.437 387.477L338.431 387.467C330.377 373.273 315.36 364.453 299.04 364.333L299.032 364.333H299.025H262.166C249.926 364.246 238.104 359.867 228.759 351.96L228.752 351.954C215.599 340.931 199.002 334.862 181.841 334.799H181.834H177.509C176.351 334.799 164.729 334.904 149.813 338.051C135.471 341.077 117.904 346.954 103.694 358.415C100.104 354.286 94.8775 351.871 89.3361 351.865H89.334L21.067 351.865L21.0647 351.865C10.541 351.877 2.01229 360.405 2 370.93V370.932L2 490.4L2 490.402C2.01229 500.926 10.5398 509.455 21.0647 509.467H21.067L89.334 509.467L89.3415 509.467C94.421 509.448 99.2524 507.395 102.782 503.812C118.285 513.954 136.619 518.931 155.15 518.001L340.442 518.001L340.449 518.001C351.571 517.962 362.453 514.776 371.84 508.81L371.846 508.806L503.963 424.135L503.974 424.128L503.984 424.121C511.012 419.494 515.858 412.21 517.415 403.941C519.056 395.417 517.159 386.593 512.161 379.495L512.154 379.485C504.563 368.843 490.898 364.43 478.517 368.623ZM496.73 399.955L496.725 399.977L496.721 400C496.266 402.624 494.758 404.946 492.546 406.427C492.541 406.43 492.537 406.433 492.532 406.436L360.543 491.025C360.543 491.025 360.542 491.026 360.541 491.026C354.531 494.851 347.563 496.898 340.439 496.933H155.1C124.413 496.933 112.01 485.403 108.4 481.043V383.404C118.447 370.11 135.282 363.174 150.054 359.589C157.494 357.784 164.316 356.852 169.309 356.372C171.803 356.132 173.837 356.005 175.257 355.939C175.968 355.906 176.524 355.887 176.908 355.877C177.1 355.872 177.248 355.87 177.351 355.868C177.457 355.866 177.508 355.866 177.508 355.866H181.828C194.053 355.923 205.872 360.257 215.237 368.117C228.368 379.192 244.97 385.308 262.147 385.4H262.158L299.021 385.4C299.022 385.4 299.023 385.4 299.023 385.4C307.747 385.417 315.783 390.139 320.044 397.751C320.045 397.753 320.046 397.754 320.047 397.756L320.708 398.954L320.713 398.963C323.552 404.043 323.59 410.196 320.875 415.287L280.026 415.287L280.02 415.287C265.261 415.329 250.873 419.921 238.816 428.435C238.815 428.436 238.815 428.436 238.814 428.436L233.702 432.025C230.622 434.186 228.93 437.826 229.261 441.573L229.261 441.574C229.593 445.321 231.899 448.607 235.31 450.194L235.31 450.194C238.721 451.78 242.72 451.427 245.8 449.265L250.899 445.691L250.906 445.685C259.425 439.656 269.594 436.397 280.031 436.353H342.713C346.927 436.373 351.112 435.663 355.084 434.256C355.084 434.256 355.085 434.255 355.086 434.255L485.37 388.544C485.373 388.543 485.376 388.542 485.379 388.541C488.935 387.337 492.859 388.632 495.001 391.716L495.003 391.718C496.672 394.116 497.296 397.089 496.73 399.955ZM87.334 488.4H23.067V372.933H87.334V488.4Z" fill="#CDB393" stroke="#CDB393" stroke-width="4"/>
<path d="M46.6788 466.8L46.6885 466.8L46.6982 466.8C49.4594 466.757 52.1022 465.678 54.1042 463.775L54.1578 463.724L54.2075 463.669C55.1122 462.672 55.8402 461.527 56.3607 460.286C56.8983 459.022 57.1838 457.665 57.2011 456.291L57.2014 456.264L57.201 456.237C57.1607 453.474 56.0795 450.829 54.175 448.828L54.1304 448.781L54.0828 448.737C49.8948 444.871 43.4397 444.871 39.2524 448.738L39.2262 448.762L39.2008 448.787C36.1629 451.8 35.2496 456.352 36.89 460.305C38.5305 464.257 42.399 466.825 46.6788 466.8Z" fill="#CDB393" stroke="#CDB393" stroke-width="4"/>
<path d="M362.399 107.4H362.4C377.09 107.4 389 95.4903 389 80.8C389 66.1098 377.091 54.2 362.4 54.2C347.709 54.2 335.8 66.1087 335.8 80.8L335.8 80.8011C335.816 95.4845 347.715 107.384 362.399 107.4ZM362.401 73.267C366.561 73.2675 369.933 76.6396 369.933 80.8C369.933 84.9607 366.561 88.333 362.4 88.333C358.239 88.333 354.867 84.9613 354.867 80.8011C354.871 76.6413 358.241 73.2705 362.401 73.267Z" fill="#CDB393" stroke="#CDB393" stroke-width="2"/>
<path d="M321.878 257.856L321.878 257.856C323.573 259.549 325.871 260.501 328.267 260.5H396.534C398.929 260.501 401.228 259.549 402.922 257.855C404.616 256.161 405.568 253.863 405.568 251.466V217.333C405.568 217.333 405.568 217.333 405.568 217.333C405.569 214.937 404.617 212.639 402.922 210.944C401.229 209.251 398.93 208.299 396.534 208.299H388.501V132C388.501 132 388.501 132 388.501 132C388.502 129.604 387.55 127.306 385.855 125.611C384.162 123.918 381.863 122.966 379.467 122.966H328.267C325.871 122.965 323.573 123.917 321.878 125.611C320.185 127.305 319.233 129.603 319.233 132V166.133C319.232 168.529 320.184 170.827 321.878 172.522C323.572 174.215 325.87 175.167 328.267 175.167H336.3V208.3H328.267C328.267 208.3 328.267 208.3 328.267 208.3C325.871 208.299 323.573 209.251 321.878 210.945C320.185 212.639 319.233 214.937 319.233 217.334V251.467C319.232 253.863 320.184 256.161 321.878 257.856ZM337.3 226.367H345.333C345.333 226.367 345.333 226.367 345.333 226.367C347.729 226.368 350.027 225.416 351.721 223.722C353.415 222.028 354.367 219.73 354.367 217.333V166.133C354.367 166.133 354.367 166.133 354.367 166.133C354.368 163.737 353.416 161.439 351.721 159.744C350.028 158.051 347.729 157.099 345.333 157.099H337.3V141.032H370.433V217.332C370.433 217.332 370.433 217.332 370.433 217.332C370.432 219.728 371.384 222.026 373.078 223.721C374.772 225.414 377.07 226.366 379.467 226.366H387.5V242.433H337.3V226.367Z" fill="#CDB393" stroke="#CDB393"/>
<path d="M272.481 337.75C276.119 339.509 280.442 339.031 283.608 336.522C283.608 336.522 283.608 336.522 283.608 336.521L320.337 307.429C378.503 323.757 440.908 304.94 480.35 259.095C520.016 212.99 529.186 148.002 503.824 92.721C478.464 37.4415 423.221 2.00406 362.4 2C295.83 1.9838 236.628 44.3272 215.133 107.331C193.744 170.023 214.407 239.345 266.533 280.104V328.267C266.533 332.307 268.843 335.991 272.481 337.75ZM272.481 337.75L273.352 335.949L272.482 337.75C272.481 337.75 272.481 337.75 272.481 337.75ZM362.401 292.133H362.397C348.462 292.156 334.61 289.995 321.345 285.729L321.342 285.728C317.993 284.658 314.332 285.32 311.57 287.496L311.566 287.499L287.6 306.485V274.851C287.6 274.85 287.6 274.85 287.6 274.85C287.601 271.475 285.984 268.305 283.251 266.324C229.815 227.368 212.635 155.342 242.735 96.4604C272.835 37.5781 341.28 9.32238 404.152 29.8225C467.024 50.3226 505.657 113.495 495.262 178.802C484.866 244.108 428.53 292.165 362.401 292.133Z" fill="#CDB393" stroke="#CDB393" stroke-width="4"/>
</svg>
