<?xml version="1.0" encoding="UTF-8" standalone="no"?>
<svg width="400" height="376" viewBox="0 0 400 376" fill="none" xmlns="http://www.w3.org/2000/svg">
<mask id="path-1-outside-1" maskUnits="userSpaceOnUse" x="-4" y="0" width="408" height="376" fill="black">
<rect fill="white" x="-4" width="408" height="376"/>
<path d="M6.39844 219.832L8 220.176V332C7.83984 353.891 25.4297 371.785 47.3203 372H352.68C374.57 371.785 392.16 353.891 392 332V220.176L393.602 219.832C397.324 219.07 399.996 215.801 400 212V92C400 87.582 396.418 84 392 84H296V44C295.973 21.918 278.082 4.02734 256 4H144C121.918 4.02734 104.027 21.918 104 44V84H8C3.58203 84 0 87.582 0 92V212C0.00390625 215.801 2.67578 219.07 6.39844 219.832ZM24 332V223.504L56 230.176V356H47.3203C34.2617 355.793 23.832 345.059 24 332ZM72 356V233.504L88 236.84V356H72ZM112 100H296V223.832L232 237.16V228C232 223.582 228.418 220 224 220H176C171.582 220 168 223.582 168 228V237.16L104 223.832V100H112ZM152 60V52H248V84H152V60ZM328 217.16L312 220.496V180H328V217.16ZM328 164H312V148H328V164ZM176 292H224C228.418 292 232 288.418 232 284V253.504L296 240.176V356H104V240.176L168 253.504V284C168 288.418 171.582 292 176 292ZM184 276V236H216V276H184ZM88 164H72V148H88V164ZM72 180H88V220.496L72 217.16V180ZM312 356V236.801L328 233.465V356H312ZM376 332C376.168 345.059 365.738 355.793 352.68 356H344V230.176L376 223.504V332ZM384 205.496L344 213.832V100H384V205.496ZM328 100V132H312V100H328ZM264 84V68H280V84H264ZM144 20H256C269.254 20 280 30.7461 280 44V52H264V44C264 39.582 260.418 36 256 36H144C139.582 36 136 39.582 136 44V52H120V44C120 30.7461 130.746 20 144 20ZM120 68H136V84H120V68ZM88 100V132H72V100H88ZM16 100H56V213.832L16 205.496V100Z"/>
</mask>
<path d="M6.39844 219.832L8 220.176V332C7.83984 353.891 25.4297 371.785 47.3203 372H352.68C374.57 371.785 392.16 353.891 392 332V220.176L393.602 219.832C397.324 219.07 399.996 215.801 400 212V92C400 87.582 396.418 84 392 84H296V44C295.973 21.918 278.082 4.02734 256 4H144C121.918 4.02734 104.027 21.918 104 44V84H8C3.58203 84 0 87.582 0 92V212C0.00390625 215.801 2.67578 219.07 6.39844 219.832ZM24 332V223.504L56 230.176V356H47.3203C34.2617 355.793 23.832 345.059 24 332ZM72 356V233.504L88 236.84V356H72ZM112 100H296V223.832L232 237.16V228C232 223.582 228.418 220 224 220H176C171.582 220 168 223.582 168 228V237.16L104 223.832V100H112ZM152 60V52H248V84H152V60ZM328 217.16L312 220.496V180H328V217.16ZM328 164H312V148H328V164ZM176 292H224C228.418 292 232 288.418 232 284V253.504L296 240.176V356H104V240.176L168 253.504V284C168 288.418 171.582 292 176 292ZM184 276V236H216V276H184ZM88 164H72V148H88V164ZM72 180H88V220.496L72 217.16V180ZM312 356V236.801L328 233.465V356H312ZM376 332C376.168 345.059 365.738 355.793 352.68 356H344V230.176L376 223.504V332ZM384 205.496L344 213.832V100H384V205.496ZM328 100V132H312V100H328ZM264 84V68H280V84H264ZM144 20H256C269.254 20 280 30.7461 280 44V52H264V44C264 39.582 260.418 36 256 36H144C139.582 36 136 39.582 136 44V52H120V44C120 30.7461 130.746 20 144 20ZM120 68H136V84H120V68ZM88 100V132H72V100H88ZM16 100H56V213.832L16 205.496V100Z" fill="#CDB393"/>
<path d="M6.39844 219.832L8 220.176V332C7.83984 353.891 25.4297 371.785 47.3203 372H352.68C374.57 371.785 392.16 353.891 392 332V220.176L393.602 219.832C397.324 219.07 399.996 215.801 400 212V92C400 87.582 396.418 84 392 84H296V44C295.973 21.918 278.082 4.02734 256 4H144C121.918 4.02734 104.027 21.918 104 44V84H8C3.58203 84 0 87.582 0 92V212C0.00390625 215.801 2.67578 219.07 6.39844 219.832ZM24 332V223.504L56 230.176V356H47.3203C34.2617 355.793 23.832 345.059 24 332ZM72 356V233.504L88 236.84V356H72ZM112 100H296V223.832L232 237.16V228C232 223.582 228.418 220 224 220H176C171.582 220 168 223.582 168 228V237.16L104 223.832V100H112ZM152 60V52H248V84H152V60ZM328 217.16L312 220.496V180H328V217.16ZM328 164H312V148H328V164ZM176 292H224C228.418 292 232 288.418 232 284V253.504L296 240.176V356H104V240.176L168 253.504V284C168 288.418 171.582 292 176 292ZM184 276V236H216V276H184ZM88 164H72V148H88V164ZM72 180H88V220.496L72 217.16V180ZM312 356V236.801L328 233.465V356H312ZM376 332C376.168 345.059 365.738 355.793 352.68 356H344V230.176L376 223.504V332ZM384 205.496L344 213.832V100H384V205.496ZM328 100V132H312V100H328ZM264 84V68H280V84H264ZM144 20H256C269.254 20 280 30.7461 280 44V52H264V44C264 39.582 260.418 36 256 36H144C139.582 36 136 39.582 136 44V52H120V44C120 30.7461 130.746 20 144 20ZM120 68H136V84H120V68ZM88 100V132H72V100H88ZM16 100H56V213.832L16 205.496V100Z" stroke="#CDB393" stroke-width="8" mask="url(#path-1-outside-1)"/>
</svg>
