<?xml version="1.0" encoding="UTF-8" standalone="no"?>
<svg width="469" height="521" viewBox="0 0 469 521" fill="none" xmlns="http://www.w3.org/2000/svg">
<mask id="path-1-outside-1" maskUnits="userSpaceOnUse" x="0" y="0" width="469" height="521" fill="black">
<rect fill="white" width="469" height="521"/>
<path d="M424.088 58.5701H415.51C411.487 48.1561 401.37 40.7499 389.553 40.7499H379.752C378.342 35.6874 376.542 30.7108 374.346 25.8593C368.338 12.5781 355.042 4 340.467 4H47.0897C32.5155 4 19.2187 12.5781 13.2109 25.8593C0.9297 53.0037 0.9297 84.1403 13.2109 111.285C15.7265 116.843 19.5195 121.578 24.1484 125.207V244.999C24.1484 264.851 40.2967 280.999 60.1482 280.999C79.9997 280.999 96.1481 264.851 96.1481 244.999V194.406C96.1481 186.347 102.703 179.792 110.761 179.792C118.82 179.792 125.371 186.347 125.371 194.406V204.159C125.371 221.718 139.656 235.999 157.21 235.999C174.765 235.999 189.046 221.718 189.046 204.159V176.859C189.046 172.335 192.726 168.656 197.249 168.656H234.042C251.745 168.656 266.147 154.253 266.147 136.55V133.14H340.464C355.038 133.14 368.338 124.562 374.342 111.285C376.538 106.433 378.342 101.453 379.752 96.3903H389.549C401.366 96.3903 411.487 88.984 415.51 78.57H424.088C435.233 78.57 444.299 87.6364 444.299 98.7809V143.171C444.299 153.906 436.291 163.179 425.67 164.745L255.972 189.734C241.667 191.839 228.589 199.027 219.14 209.968C209.691 220.909 204.487 234.898 204.487 249.355V296.647C204.487 297.389 204.57 298.116 204.726 298.815C194.148 298.827 185.546 307.436 185.546 318.014V341.936C178.62 342.87 173.265 348.819 173.265 355.995V475.279C173.265 497.732 191.534 516.002 213.987 516.002C236.437 516.002 254.706 497.732 254.706 475.279V355.995C254.706 348.819 249.351 342.87 242.425 341.932V318.01C242.425 307.768 234.362 299.37 224.245 298.839C224.405 298.132 224.487 297.397 224.487 296.643V249.355C224.487 229.53 239.276 212.405 258.886 209.519L428.584 184.531C448.944 181.531 464.299 163.749 464.299 143.171V98.7809C464.299 76.6091 446.26 58.5701 424.088 58.5701V58.5701ZM246.151 136.55C246.151 143.226 240.718 148.656 234.046 148.656H197.249C181.699 148.656 169.046 161.308 169.046 176.859V204.159C169.046 210.687 163.738 215.999 157.21 215.999C150.683 215.999 145.374 210.687 145.374 204.159V194.406C145.374 175.32 129.847 159.792 110.761 159.792C91.6754 159.792 76.1521 175.32 76.1521 194.406V244.999C76.1521 253.819 68.9724 260.999 60.1521 260.999C51.3279 260.999 44.1522 253.819 44.1522 244.999V133.023C44.3866 133.042 44.6248 133.058 44.867 133.074H44.9022C45.0037 133.082 45.1053 133.089 45.2069 133.093C45.2342 133.093 45.2576 133.097 45.285 133.097C45.3748 133.101 45.4647 133.105 45.5545 133.109C45.5858 133.109 45.6209 133.113 45.6522 133.113C45.7381 133.117 45.8201 133.117 45.9022 133.121C45.9412 133.121 45.9803 133.124 46.0155 133.124C46.0975 133.128 46.1756 133.128 46.2537 133.132C46.2967 133.132 46.3358 133.132 46.3787 133.136C46.4569 133.136 46.535 133.136 46.6131 133.14H46.7381C46.8553 133.14 46.9725 133.144 47.0897 133.144H246.151V136.55ZM340.467 113.14H47.0897C46.992 113.14 46.8944 113.14 46.7967 113.136C46.7616 113.136 46.7225 113.136 46.6873 113.136C46.6287 113.132 46.5701 113.132 46.5076 113.128C46.4647 113.128 46.4178 113.128 46.3748 113.125C46.3241 113.121 46.2733 113.121 46.2225 113.117C46.1717 113.113 46.1209 113.113 46.0701 113.109C46.0311 113.105 45.992 113.105 45.953 113.101C45.8905 113.097 45.8319 113.093 45.7733 113.089C45.7459 113.086 45.7225 113.086 45.6991 113.082C45.3709 113.054 45.0467 113.019 44.7225 112.976C44.7108 112.972 44.6991 112.972 44.6834 112.968C44.6131 112.961 44.5389 112.949 44.4647 112.937C44.4452 112.933 44.4256 112.929 44.4061 112.925C44.3358 112.914 44.2655 112.906 44.1952 112.894C44.1717 112.89 44.1483 112.886 44.1248 112.882C44.0584 112.867 43.992 112.855 43.9217 112.843C43.8983 112.839 43.8748 112.836 43.8514 112.828C43.785 112.816 43.7186 112.804 43.6522 112.789C43.5663 112.773 43.4764 112.753 43.3866 112.734C43.3709 112.73 43.3514 112.726 43.3358 112.722C43.2538 112.703 43.1717 112.687 43.0936 112.668C43.078 112.664 43.0663 112.66 43.0506 112.656C42.9608 112.636 42.8748 112.613 42.785 112.589C42.785 112.589 42.785 112.589 42.7811 112.589C37.828 111.3 33.6014 107.832 31.4335 103.039C26.6054 92.3707 24.1327 80.9372 24.0077 69.4802H124.652C130.171 69.4802 134.652 65.0037 134.652 59.4803C134.652 53.9568 130.171 49.4803 124.652 49.4803H26.2069C27.4374 44.2381 29.1757 39.0858 31.4335 34.1014C34.2069 27.9648 40.3553 23.9999 47.0897 23.9999H340.467C347.202 23.9999 353.346 27.9648 356.124 34.1014C366.034 56.0076 366.034 81.1325 356.124 103.039C353.346 109.175 347.202 113.14 340.467 113.14ZM389.553 76.3903H383.268C383.666 71.1833 383.666 65.9607 383.268 60.7537H389.553C393.866 60.7537 397.37 64.2576 397.37 68.5701C397.37 72.8825 393.866 76.3903 389.553 76.3903ZM222.425 341.807H205.546V318.811H222.425V341.807ZM234.706 475.279C234.706 486.701 225.409 495.998 213.987 495.998C202.562 495.998 193.265 486.705 193.265 475.279V361.807H234.706V475.279Z"/>
</mask>
<path d="M424.088 58.5701H415.51C411.487 48.1561 401.37 40.7499 389.553 40.7499H379.752C378.342 35.6874 376.542 30.7108 374.346 25.8593C368.338 12.5781 355.042 4 340.467 4H47.0897C32.5155 4 19.2187 12.5781 13.2109 25.8593C0.9297 53.0037 0.9297 84.1403 13.2109 111.285C15.7265 116.843 19.5195 121.578 24.1484 125.207V244.999C24.1484 264.851 40.2967 280.999 60.1482 280.999C79.9997 280.999 96.1481 264.851 96.1481 244.999V194.406C96.1481 186.347 102.703 179.792 110.761 179.792C118.82 179.792 125.371 186.347 125.371 194.406V204.159C125.371 221.718 139.656 235.999 157.21 235.999C174.765 235.999 189.046 221.718 189.046 204.159V176.859C189.046 172.335 192.726 168.656 197.249 168.656H234.042C251.745 168.656 266.147 154.253 266.147 136.55V133.14H340.464C355.038 133.14 368.338 124.562 374.342 111.285C376.538 106.433 378.342 101.453 379.752 96.3903H389.549C401.366 96.3903 411.487 88.984 415.51 78.57H424.088C435.233 78.57 444.299 87.6364 444.299 98.7809V143.171C444.299 153.906 436.291 163.179 425.67 164.745L255.972 189.734C241.667 191.839 228.589 199.027 219.14 209.968C209.691 220.909 204.487 234.898 204.487 249.355V296.647C204.487 297.389 204.57 298.116 204.726 298.815C194.148 298.827 185.546 307.436 185.546 318.014V341.936C178.62 342.87 173.265 348.819 173.265 355.995V475.279C173.265 497.732 191.534 516.002 213.987 516.002C236.437 516.002 254.706 497.732 254.706 475.279V355.995C254.706 348.819 249.351 342.87 242.425 341.932V318.01C242.425 307.768 234.362 299.37 224.245 298.839C224.405 298.132 224.487 297.397 224.487 296.643V249.355C224.487 229.53 239.276 212.405 258.886 209.519L428.584 184.531C448.944 181.531 464.299 163.749 464.299 143.171V98.7809C464.299 76.6091 446.26 58.5701 424.088 58.5701V58.5701ZM246.151 136.55C246.151 143.226 240.718 148.656 234.046 148.656H197.249C181.699 148.656 169.046 161.308 169.046 176.859V204.159C169.046 210.687 163.738 215.999 157.21 215.999C150.683 215.999 145.374 210.687 145.374 204.159V194.406C145.374 175.32 129.847 159.792 110.761 159.792C91.6754 159.792 76.1521 175.32 76.1521 194.406V244.999C76.1521 253.819 68.9724 260.999 60.1521 260.999C51.3279 260.999 44.1522 253.819 44.1522 244.999V133.023C44.3866 133.042 44.6248 133.058 44.867 133.074H44.9022C45.0037 133.082 45.1053 133.089 45.2069 133.093C45.2342 133.093 45.2576 133.097 45.285 133.097C45.3748 133.101 45.4647 133.105 45.5545 133.109C45.5858 133.109 45.6209 133.113 45.6522 133.113C45.7381 133.117 45.8201 133.117 45.9022 133.121C45.9412 133.121 45.9803 133.124 46.0155 133.124C46.0975 133.128 46.1756 133.128 46.2537 133.132C46.2967 133.132 46.3358 133.132 46.3787 133.136C46.4569 133.136 46.535 133.136 46.6131 133.14H46.7381C46.8553 133.14 46.9725 133.144 47.0897 133.144H246.151V136.55ZM340.467 113.14H47.0897C46.992 113.14 46.8944 113.14 46.7967 113.136C46.7616 113.136 46.7225 113.136 46.6873 113.136C46.6287 113.132 46.5701 113.132 46.5076 113.128C46.4647 113.128 46.4178 113.128 46.3748 113.125C46.3241 113.121 46.2733 113.121 46.2225 113.117C46.1717 113.113 46.1209 113.113 46.0701 113.109C46.0311 113.105 45.992 113.105 45.953 113.101C45.8905 113.097 45.8319 113.093 45.7733 113.089C45.7459 113.086 45.7225 113.086 45.6991 113.082C45.3709 113.054 45.0467 113.019 44.7225 112.976C44.7108 112.972 44.6991 112.972 44.6834 112.968C44.6131 112.961 44.5389 112.949 44.4647 112.937C44.4452 112.933 44.4256 112.929 44.4061 112.925C44.3358 112.914 44.2655 112.906 44.1952 112.894C44.1717 112.89 44.1483 112.886 44.1248 112.882C44.0584 112.867 43.992 112.855 43.9217 112.843C43.8983 112.839 43.8748 112.836 43.8514 112.828C43.785 112.816 43.7186 112.804 43.6522 112.789C43.5663 112.773 43.4764 112.753 43.3866 112.734C43.3709 112.73 43.3514 112.726 43.3358 112.722C43.2538 112.703 43.1717 112.687 43.0936 112.668C43.078 112.664 43.0663 112.66 43.0506 112.656C42.9608 112.636 42.8748 112.613 42.785 112.589C42.785 112.589 42.785 112.589 42.7811 112.589C37.828 111.3 33.6014 107.832 31.4335 103.039C26.6054 92.3707 24.1327 80.9372 24.0077 69.4802H124.652C130.171 69.4802 134.652 65.0037 134.652 59.4803C134.652 53.9568 130.171 49.4803 124.652 49.4803H26.2069C27.4374 44.2381 29.1757 39.0858 31.4335 34.1014C34.2069 27.9648 40.3553 23.9999 47.0897 23.9999H340.467C347.202 23.9999 353.346 27.9648 356.124 34.1014C366.034 56.0076 366.034 81.1325 356.124 103.039C353.346 109.175 347.202 113.14 340.467 113.14ZM389.553 76.3903H383.268C383.666 71.1833 383.666 65.9607 383.268 60.7537H389.553C393.866 60.7537 397.37 64.2576 397.37 68.5701C397.37 72.8825 393.866 76.3903 389.553 76.3903ZM222.425 341.807H205.546V318.811H222.425V341.807ZM234.706 475.279C234.706 486.701 225.409 495.998 213.987 495.998C202.562 495.998 193.265 486.705 193.265 475.279V361.807H234.706V475.279Z" fill="#CDB393"/>
<path d="M424.088 58.5701H415.51C411.487 48.1561 401.37 40.7499 389.553 40.7499H379.752C378.342 35.6874 376.542 30.7108 374.346 25.8593C368.338 12.5781 355.042 4 340.467 4H47.0897C32.5155 4 19.2187 12.5781 13.2109 25.8593C0.9297 53.0037 0.9297 84.1403 13.2109 111.285C15.7265 116.843 19.5195 121.578 24.1484 125.207V244.999C24.1484 264.851 40.2967 280.999 60.1482 280.999C79.9997 280.999 96.1481 264.851 96.1481 244.999V194.406C96.1481 186.347 102.703 179.792 110.761 179.792C118.82 179.792 125.371 186.347 125.371 194.406V204.159C125.371 221.718 139.656 235.999 157.21 235.999C174.765 235.999 189.046 221.718 189.046 204.159V176.859C189.046 172.335 192.726 168.656 197.249 168.656H234.042C251.745 168.656 266.147 154.253 266.147 136.55V133.14H340.464C355.038 133.14 368.338 124.562 374.342 111.285C376.538 106.433 378.342 101.453 379.752 96.3903H389.549C401.366 96.3903 411.487 88.984 415.51 78.57H424.088C435.233 78.57 444.299 87.6364 444.299 98.7809V143.171C444.299 153.906 436.291 163.179 425.67 164.745L255.972 189.734C241.667 191.839 228.589 199.027 219.14 209.968C209.691 220.909 204.487 234.898 204.487 249.355V296.647C204.487 297.389 204.57 298.116 204.726 298.815C194.148 298.827 185.546 307.436 185.546 318.014V341.936C178.62 342.87 173.265 348.819 173.265 355.995V475.279C173.265 497.732 191.534 516.002 213.987 516.002C236.437 516.002 254.706 497.732 254.706 475.279V355.995C254.706 348.819 249.351 342.87 242.425 341.932V318.01C242.425 307.768 234.362 299.37 224.245 298.839C224.405 298.132 224.487 297.397 224.487 296.643V249.355C224.487 229.53 239.276 212.405 258.886 209.519L428.584 184.531C448.944 181.531 464.299 163.749 464.299 143.171V98.7809C464.299 76.6091 446.26 58.5701 424.088 58.5701V58.5701ZM246.151 136.55C246.151 143.226 240.718 148.656 234.046 148.656H197.249C181.699 148.656 169.046 161.308 169.046 176.859V204.159C169.046 210.687 163.738 215.999 157.21 215.999C150.683 215.999 145.374 210.687 145.374 204.159V194.406C145.374 175.32 129.847 159.792 110.761 159.792C91.6754 159.792 76.1521 175.32 76.1521 194.406V244.999C76.1521 253.819 68.9724 260.999 60.1521 260.999C51.3279 260.999 44.1522 253.819 44.1522 244.999V133.023C44.3866 133.042 44.6248 133.058 44.867 133.074H44.9022C45.0037 133.082 45.1053 133.089 45.2069 133.093C45.2342 133.093 45.2576 133.097 45.285 133.097C45.3748 133.101 45.4647 133.105 45.5545 133.109C45.5858 133.109 45.6209 133.113 45.6522 133.113C45.7381 133.117 45.8201 133.117 45.9022 133.121C45.9412 133.121 45.9803 133.124 46.0155 133.124C46.0975 133.128 46.1756 133.128 46.2537 133.132C46.2967 133.132 46.3358 133.132 46.3787 133.136C46.4569 133.136 46.535 133.136 46.6131 133.14H46.7381C46.8553 133.14 46.9725 133.144 47.0897 133.144H246.151V136.55ZM340.467 113.14H47.0897C46.992 113.14 46.8944 113.14 46.7967 113.136C46.7616 113.136 46.7225 113.136 46.6873 113.136C46.6287 113.132 46.5701 113.132 46.5076 113.128C46.4647 113.128 46.4178 113.128 46.3748 113.125C46.3241 113.121 46.2733 113.121 46.2225 113.117C46.1717 113.113 46.1209 113.113 46.0701 113.109C46.0311 113.105 45.992 113.105 45.953 113.101C45.8905 113.097 45.8319 113.093 45.7733 113.089C45.7459 113.086 45.7225 113.086 45.6991 113.082C45.3709 113.054 45.0467 113.019 44.7225 112.976C44.7108 112.972 44.6991 112.972 44.6834 112.968C44.6131 112.961 44.5389 112.949 44.4647 112.937C44.4452 112.933 44.4256 112.929 44.4061 112.925C44.3358 112.914 44.2655 112.906 44.1952 112.894C44.1717 112.89 44.1483 112.886 44.1248 112.882C44.0584 112.867 43.992 112.855 43.9217 112.843C43.8983 112.839 43.8748 112.836 43.8514 112.828C43.785 112.816 43.7186 112.804 43.6522 112.789C43.5663 112.773 43.4764 112.753 43.3866 112.734C43.3709 112.73 43.3514 112.726 43.3358 112.722C43.2538 112.703 43.1717 112.687 43.0936 112.668C43.078 112.664 43.0663 112.66 43.0506 112.656C42.9608 112.636 42.8748 112.613 42.785 112.589C42.785 112.589 42.785 112.589 42.7811 112.589C37.828 111.3 33.6014 107.832 31.4335 103.039C26.6054 92.3707 24.1327 80.9372 24.0077 69.4802H124.652C130.171 69.4802 134.652 65.0037 134.652 59.4803C134.652 53.9568 130.171 49.4803 124.652 49.4803H26.2069C27.4374 44.2381 29.1757 39.0858 31.4335 34.1014C34.2069 27.9648 40.3553 23.9999 47.0897 23.9999H340.467C347.202 23.9999 353.346 27.9648 356.124 34.1014C366.034 56.0076 366.034 81.1325 356.124 103.039C353.346 109.175 347.202 113.14 340.467 113.14ZM389.553 76.3903H383.268C383.666 71.1833 383.666 65.9607 383.268 60.7537H389.553C393.866 60.7537 397.37 64.2576 397.37 68.5701C397.37 72.8825 393.866 76.3903 389.553 76.3903ZM222.425 341.807H205.546V318.811H222.425V341.807ZM234.706 475.279C234.706 486.701 225.409 495.998 213.987 495.998C202.562 495.998 193.265 486.705 193.265 475.279V361.807H234.706V475.279Z" stroke="#CDB393" stroke-width="8" mask="url(#path-1-outside-1)"/>
</svg>
