<?xml version="1.0" encoding="UTF-8" standalone="no"?>
<svg width="466" height="518" viewBox="0 0 466 518" fill="none" xmlns="http://www.w3.org/2000/svg">
<mask id="path-1-outside-1" maskUnits="userSpaceOnUse" x="0" y="0" width="466" height="518" fill="black">
<rect fill="white" width="466" height="518"/>
<path d="M367.622 366.663L320.092 350.823L303.029 316.696C318.401 301.05 329.074 280.348 332.673 258.755L334.801 246H353C369.542 246 383 232.542 383 216V153C383 70.29 315.71 3 233 3C150.078 3 83 70.097 83 153V216C83 229.036 91.361 240.152 103 244.28V256C103 272.542 116.458 286 133 286H141.782C146.117 295.417 151.728 304.139 158.556 311.974C159.972 313.602 161.449 315.18 162.962 316.715L145.908 350.823L98.377 366.664C43.112 385.092 3 443.271 3 505C3 510.523 7.477 515 13 515H453C458.522 515 463 510.523 463 505C463 443.271 422.889 385.092 367.622 366.663ZM363 216C363 221.514 358.514 226 353 226H337.738C340.28 206.31 341.974 185.357 342.655 164.72C342.675 164.138 342.691 163.572 342.709 163H363V216ZM113 226C107.486 226 103 221.514 103 216V163H123.298C123.331 164.043 123.366 165.091 123.405 166.146C123.406 166.182 123.408 166.217 123.409 166.253C123.409 166.256 123.409 166.259 123.409 166.262C124.109 186.334 125.781 206.743 128.265 225.999H113V226ZM133 266C127.486 266 123 261.514 123 256V246H131.198L133.326 258.759C133.732 261.184 134.231 263.6 134.808 266H133ZM123.017 143H103.38C108.445 75.979 164.377 23 233 23C301.318 23 357.496 75.972 362.619 143H342.984C342.264 87.773 297.291 43 241.951 43H224.051C168.712 43 123.736 87.773 123.017 143ZM224.05 63H241.95C286.759 63 323.026 99.651 323 144.41C323 147.557 322.975 150.297 322.922 152.79C322.922 152.822 322.921 152.855 322.921 152.888L310.413 151.101C276.433 146.249 244.349 130.207 220.071 105.929C218.195 104.054 215.652 103 213 103C186.144 103 160.436 115.236 143.442 135.908C147.63 95.189 182.053 63 224.05 63ZM155.54 266C150.534 249.347 144.806 200.347 143.54 168.947L156.999 151.001C169.36 134.525 188.591 124.288 209.048 123.113C235.965 148.729 270.787 165.645 307.585 170.899L322.307 173.003C321.323 193.888 319.312 214.846 316.431 234.121C316.43 234.127 316.429 234.134 316.428 234.141C315.512 240.338 314.79 244.326 312.946 255.465C307.65 287.23 283.948 315.955 252.659 323.778C239.782 326.993 226.216 326.992 213.346 323.778C193.809 318.894 175.895 305.376 164.334 286H184.72C188.848 297.639 199.963 306 213 306H233C249.575 306 263 292.576 263 276C263 259.458 249.542 246 233 246H213C199.673 246 188.722 254.608 184.703 266H155.54ZM212.159 344.016C219.018 345.461 226.011 346.2 233 346.2C238.471 346.2 243.943 345.742 249.353 344.854L231.683 363.541L212.159 344.016ZM217.935 378.079L186.217 411.621C177.485 394.907 169.982 377.512 163.828 359.704L175.739 335.882L217.935 378.079ZM288.566 332.494L302.17 359.703C296.006 377.541 288.501 394.942 279.778 411.636L245.83 377.688L288.566 332.494ZM203 276C203 270.479 207.478 266 213 266H233C238.514 266 243 270.486 243 276C243 281.522 238.521 286 233 286H213C207.486 286 203 281.514 203 276ZM23.4 495C27.363 445.461 60.332 400.433 104.702 385.637L146.796 371.609C154.508 392.934 164.062 413.661 175.259 433.349C175.278 433.383 175.296 433.417 175.315 433.45C175.315 433.451 175.316 433.451 175.316 433.452C183.497 447.841 192.705 461.902 202.688 475.251L214.99 495H23.4ZM233 486.086L219.438 464.313C219.286 464.069 219.124 463.832 218.952 463.602C210.854 452.8 203.3 441.503 196.42 429.94L232.083 392.226L269.661 429.804C262.735 441.451 255.155 452.795 247.05 463.6C246.56 464.253 247.255 463.224 233 486.086ZM251.01 495L263.311 475.252C273.338 461.852 282.612 447.678 290.875 433.12C290.925 433.032 290.972 432.942 291.022 432.854C291.028 432.843 291.034 432.833 291.04 432.822C302.095 413.322 311.549 392.775 319.204 371.609L361.297 385.637C405.668 400.433 438.637 445.461 442.6 495H251.01Z"/>
</mask>
<path d="M367.622 366.663L320.092 350.823L303.029 316.696C318.401 301.05 329.074 280.348 332.673 258.755L334.801 246H353C369.542 246 383 232.542 383 216V153C383 70.29 315.71 3 233 3C150.078 3 83 70.097 83 153V216C83 229.036 91.361 240.152 103 244.28V256C103 272.542 116.458 286 133 286H141.782C146.117 295.417 151.728 304.139 158.556 311.974C159.972 313.602 161.449 315.18 162.962 316.715L145.908 350.823L98.377 366.664C43.112 385.092 3 443.271 3 505C3 510.523 7.477 515 13 515H453C458.522 515 463 510.523 463 505C463 443.271 422.889 385.092 367.622 366.663ZM363 216C363 221.514 358.514 226 353 226H337.738C340.28 206.31 341.974 185.357 342.655 164.72C342.675 164.138 342.691 163.572 342.709 163H363V216ZM113 226C107.486 226 103 221.514 103 216V163H123.298C123.331 164.043 123.366 165.091 123.405 166.146C123.406 166.182 123.408 166.217 123.409 166.253C123.409 166.256 123.409 166.259 123.409 166.262C124.109 186.334 125.781 206.743 128.265 225.999H113V226ZM133 266C127.486 266 123 261.514 123 256V246H131.198L133.326 258.759C133.732 261.184 134.231 263.6 134.808 266H133ZM123.017 143H103.38C108.445 75.979 164.377 23 233 23C301.318 23 357.496 75.972 362.619 143H342.984C342.264 87.773 297.291 43 241.951 43H224.051C168.712 43 123.736 87.773 123.017 143ZM224.05 63H241.95C286.759 63 323.026 99.651 323 144.41C323 147.557 322.975 150.297 322.922 152.79C322.922 152.822 322.921 152.855 322.921 152.888L310.413 151.101C276.433 146.249 244.349 130.207 220.071 105.929C218.195 104.054 215.652 103 213 103C186.144 103 160.436 115.236 143.442 135.908C147.63 95.189 182.053 63 224.05 63ZM155.54 266C150.534 249.347 144.806 200.347 143.54 168.947L156.999 151.001C169.36 134.525 188.591 124.288 209.048 123.113C235.965 148.729 270.787 165.645 307.585 170.899L322.307 173.003C321.323 193.888 319.312 214.846 316.431 234.121C316.43 234.127 316.429 234.134 316.428 234.141C315.512 240.338 314.79 244.326 312.946 255.465C307.65 287.23 283.948 315.955 252.659 323.778C239.782 326.993 226.216 326.992 213.346 323.778C193.809 318.894 175.895 305.376 164.334 286H184.72C188.848 297.639 199.963 306 213 306H233C249.575 306 263 292.576 263 276C263 259.458 249.542 246 233 246H213C199.673 246 188.722 254.608 184.703 266H155.54ZM212.159 344.016C219.018 345.461 226.011 346.2 233 346.2C238.471 346.2 243.943 345.742 249.353 344.854L231.683 363.541L212.159 344.016ZM217.935 378.079L186.217 411.621C177.485 394.907 169.982 377.512 163.828 359.704L175.739 335.882L217.935 378.079ZM288.566 332.494L302.17 359.703C296.006 377.541 288.501 394.942 279.778 411.636L245.83 377.688L288.566 332.494ZM203 276C203 270.479 207.478 266 213 266H233C238.514 266 243 270.486 243 276C243 281.522 238.521 286 233 286H213C207.486 286 203 281.514 203 276ZM23.4 495C27.363 445.461 60.332 400.433 104.702 385.637L146.796 371.609C154.508 392.934 164.062 413.661 175.259 433.349C175.278 433.383 175.296 433.417 175.315 433.45C175.315 433.451 175.316 433.451 175.316 433.452C183.497 447.841 192.705 461.902 202.688 475.251L214.99 495H23.4ZM233 486.086L219.438 464.313C219.286 464.069 219.124 463.832 218.952 463.602C210.854 452.8 203.3 441.503 196.42 429.94L232.083 392.226L269.661 429.804C262.735 441.451 255.155 452.795 247.05 463.6C246.56 464.253 247.255 463.224 233 486.086ZM251.01 495L263.311 475.252C273.338 461.852 282.612 447.678 290.875 433.12C290.925 433.032 290.972 432.942 291.022 432.854C291.028 432.843 291.034 432.833 291.04 432.822C302.095 413.322 311.549 392.775 319.204 371.609L361.297 385.637C405.668 400.433 438.637 445.461 442.6 495H251.01Z" fill="#CDB393"/>
<path d="M367.622 366.663L320.092 350.823L303.029 316.696C318.401 301.05 329.074 280.348 332.673 258.755L334.801 246H353C369.542 246 383 232.542 383 216V153C383 70.29 315.71 3 233 3C150.078 3 83 70.097 83 153V216C83 229.036 91.361 240.152 103 244.28V256C103 272.542 116.458 286 133 286H141.782C146.117 295.417 151.728 304.139 158.556 311.974C159.972 313.602 161.449 315.18 162.962 316.715L145.908 350.823L98.377 366.664C43.112 385.092 3 443.271 3 505C3 510.523 7.477 515 13 515H453C458.522 515 463 510.523 463 505C463 443.271 422.889 385.092 367.622 366.663ZM363 216C363 221.514 358.514 226 353 226H337.738C340.28 206.31 341.974 185.357 342.655 164.72C342.675 164.138 342.691 163.572 342.709 163H363V216ZM113 226C107.486 226 103 221.514 103 216V163H123.298C123.331 164.043 123.366 165.091 123.405 166.146C123.406 166.182 123.408 166.217 123.409 166.253C123.409 166.256 123.409 166.259 123.409 166.262C124.109 186.334 125.781 206.743 128.265 225.999H113V226ZM133 266C127.486 266 123 261.514 123 256V246H131.198L133.326 258.759C133.732 261.184 134.231 263.6 134.808 266H133ZM123.017 143H103.38C108.445 75.979 164.377 23 233 23C301.318 23 357.496 75.972 362.619 143H342.984C342.264 87.773 297.291 43 241.951 43H224.051C168.712 43 123.736 87.773 123.017 143ZM224.05 63H241.95C286.759 63 323.026 99.651 323 144.41C323 147.557 322.975 150.297 322.922 152.79C322.922 152.822 322.921 152.855 322.921 152.888L310.413 151.101C276.433 146.249 244.349 130.207 220.071 105.929C218.195 104.054 215.652 103 213 103C186.144 103 160.436 115.236 143.442 135.908C147.63 95.189 182.053 63 224.05 63ZM155.54 266C150.534 249.347 144.806 200.347 143.54 168.947L156.999 151.001C169.36 134.525 188.591 124.288 209.048 123.113C235.965 148.729 270.787 165.645 307.585 170.899L322.307 173.003C321.323 193.888 319.312 214.846 316.431 234.121C316.43 234.127 316.429 234.134 316.428 234.141C315.512 240.338 314.79 244.326 312.946 255.465C307.65 287.23 283.948 315.955 252.659 323.778C239.782 326.993 226.216 326.992 213.346 323.778C193.809 318.894 175.895 305.376 164.334 286H184.72C188.848 297.639 199.963 306 213 306H233C249.575 306 263 292.576 263 276C263 259.458 249.542 246 233 246H213C199.673 246 188.722 254.608 184.703 266H155.54ZM212.159 344.016C219.018 345.461 226.011 346.2 233 346.2C238.471 346.2 243.943 345.742 249.353 344.854L231.683 363.541L212.159 344.016ZM217.935 378.079L186.217 411.621C177.485 394.907 169.982 377.512 163.828 359.704L175.739 335.882L217.935 378.079ZM288.566 332.494L302.17 359.703C296.006 377.541 288.501 394.942 279.778 411.636L245.83 377.688L288.566 332.494ZM203 276C203 270.479 207.478 266 213 266H233C238.514 266 243 270.486 243 276C243 281.522 238.521 286 233 286H213C207.486 286 203 281.514 203 276ZM23.4 495C27.363 445.461 60.332 400.433 104.702 385.637L146.796 371.609C154.508 392.934 164.062 413.661 175.259 433.349C175.278 433.383 175.296 433.417 175.315 433.45C175.315 433.451 175.316 433.451 175.316 433.452C183.497 447.841 192.705 461.902 202.688 475.251L214.99 495H23.4ZM233 486.086L219.438 464.313C219.286 464.069 219.124 463.832 218.952 463.602C210.854 452.8 203.3 441.503 196.42 429.94L232.083 392.226L269.661 429.804C262.735 441.451 255.155 452.795 247.05 463.6C246.56 464.253 247.255 463.224 233 486.086ZM251.01 495L263.311 475.252C273.338 461.852 282.612 447.678 290.875 433.12C290.925 433.032 290.972 432.942 291.022 432.854C291.028 432.843 291.034 432.833 291.04 432.822C302.095 413.322 311.549 392.775 319.204 371.609L361.297 385.637C405.668 400.433 438.637 445.461 442.6 495H251.01Z" stroke="#CDB393" stroke-width="6" mask="url(#path-1-outside-1)"/>
</svg>
