<?xml version="1.0" encoding="utf-8"?>
<!-- Generator: Adobe Illustrator 23.0.1, SVG Export Plug-In . SVG Version: 6.00 Build 0)  -->
<svg version="1.1" id="Layer_1" xmlns="http://www.w3.org/2000/svg" xmlns:xlink="http://www.w3.org/1999/xlink" x="0px" y="0px"
	 viewBox="0 0 3538.1 3538.1" style="enable-background:new 0 0 3538.1 3538.1;" xml:space="preserve">
<style type="text/css">
	.st0{display:none;}
	.st1{display:inline;}
	.st2{display:inline;clip-path:url(#SVGID_2_);}
</style>
<polygon points="26.7,1148.6 430.6,1148.6 430.6,2011.5 998.4,2011.5 998.4,2356.7 26.7,2356.7 "/>
<polygon points="1086.5,1148.6 2116.8,1148.6 2116.8,1480 1483.4,1480 1483.4,1602.5 2073.7,1602.5 2073.7,1894.2 1483.4,1894.2 
	1483.4,2025.3 2125.4,2025.3 2125.4,2356.7 1086.5,2356.7 "/>
<polygon points="2146.2,1148.6 2598.4,1148.6 2833.1,1826.9 3067.8,1148.6 3513.1,1148.6 3022.9,2365.3 2636.3,2365.3 "/>
<g class="st0">
	<defs>
		<rect id="SVGID_1_" x="-667.6" y="351.7" width="4932.3" height="2834.6"/>
	</defs>
	<clipPath id="SVGID_2_" class="st1">
		<use xlink:href="#SVGID_1_"  style="overflow:visible;"/>
	</clipPath>
	<path class="st2" d="M496.9,1159h61c51.4,0,86.9,35.3,86.9,81.3v0.5c0,46-35.5,81.8-86.9,81.8h-61V1159z M557.9,1296.4
		c34.3,0,56.8-23.1,56.8-55.1v-0.5c0-32-22.4-55.6-56.8-55.6h-32.3v111.2H557.9z"/>
	<polygon class="st2" points="679.6,1159 800.8,1159 800.8,1184.7 708.3,1184.7 708.3,1227.2 790.3,1227.2 790.3,1252.9 
		708.3,1252.9 708.3,1296.8 802,1296.8 802,1322.5 679.6,1322.5 	"/>
	<polygon class="st2" points="826.7,1159 858.5,1159 907.8,1284.7 956.9,1159 988,1159 920,1323.7 894.7,1323.7 	"/>
	<polygon class="st2" points="496.9,1372.5 618.2,1372.5 618.2,1398.2 525.6,1398.2 525.6,1440.7 607.6,1440.7 607.6,1466.4 
		525.6,1466.4 525.6,1510.4 619.3,1510.4 619.3,1536.1 496.9,1536.1 	"/>
	<polygon class="st2" points="686.1,1372.5 714.9,1372.5 714.9,1509.9 800.8,1509.9 800.8,1536.1 686.1,1536.1 	"/>
	<path class="st2" d="M823.5,1454.8v-0.5c0-46,35.5-84.6,85.8-84.6c50.2,0,85.3,38.1,85.3,84.1v0.5c0,46-35.5,84.6-85.8,84.6
		C858.5,1538.9,823.5,1500.8,823.5,1454.8 M964.4,1454.8v-0.5c0-31.8-23.1-58.2-55.6-58.2c-32.5,0-55.1,25.9-55.1,57.7v0.5
		c0,31.8,23.1,58.2,55.6,58.2C941.7,1512.5,964.4,1486.5,964.4,1454.8"/>
	<path class="st2" d="M496.9,1586.1H687c38.1,0,62.2,21.7,62.2,54.7v0.5c0,36.7-29.4,55.8-65.4,55.8H525.6v52.6h-28.7V1586.1z
		 M684.7,1671.1c21.7,0,35.3-12.1,35.3-29.2v-0.5c0-19.2-13.8-29.2-35.3-29.2h-159v58.9H684.7z"/>
	<polygon class="st2" points="775.4,1586.1 806,1586.1 880.9,1668.7 955.8,1586.1 986.4,1586.1 986.4,1749.6 957.6,1749.6 
		957.6,1625.5 880.9,1709.4 879.9,1709.4 803.6,1626 803.6,1749.6 775.4,1749.6 	"/>
	<polygon class="st2" points="496.9,1799.6 618.2,1799.6 618.2,1825.3 525.6,1825.3 525.6,1867.9 607.6,1867.9 607.6,1893.6 
		525.6,1893.6 525.6,1937.5 619.3,1937.5 619.3,1963.2 496.9,1963.2 	"/>
	<polygon class="st2" points="672.1,1799.6 698.7,1799.6 786.4,1912.7 786.4,1799.6 814.6,1799.6 814.6,1963.2 790.6,1963.2 
		700.4,1846.8 700.4,1963.2 672.1,1963.2 	"/>
	<polygon class="st2" points="906.2,1826.3 854.3,1826.3 854.3,1799.6 987,1799.6 987,1826.3 935.2,1826.3 935.2,1963.2 
		906.2,1963.2 	"/>
</g>
</svg>
