<svg width="396" height="152" viewBox="0 0 396 152" fill="none" xmlns="http://www.w3.org/2000/svg">
<path d="M391.805 93.1084H4.19519C2.01079 93.1084 0.23999 94.8006 0.23999 96.8881C0.23999 98.9756 2.01079 100.668 4.19519 100.668H391.805C393.989 100.668 395.76 98.9756 395.76 96.8881C395.76 94.8006 393.989 93.1084 391.805 93.1084Z" fill="white"/>
<path d="M55.6012 63.3335V83.2863H2.39366L1.24695 73.7686C2.24077 72.469 4.34308 71.2076 7.55388 69.9844V17.5796C4.41952 16.4329 2.31721 15.1333 1.24695 13.6808L2.39366 4.16307H54.6838V24.1159L46.1981 25.1479C44.4398 23.619 43.0256 20.7904 41.9553 16.6622H24.0666V36.3857H40.0059C40.9233 34.0923 41.8788 32.4869 42.8727 31.5695L50.097 32.3722V52.7837L42.8727 53.7011C41.8788 52.9366 40.9233 51.3312 40.0059 48.8849H24.0666V70.7871H42.8727C43.8665 66.8119 45.2808 63.9833 47.1155 62.3015L55.6012 63.3335ZM117.065 39.2525L98.1443 83.9743H85.5304L66.7243 39.2525C62.9019 38.0293 60.3409 36.5386 59.0413 34.7803L60.188 25.9506H86.5625L87.7092 34.7803C86.7154 36.0035 85.0717 37.112 82.7783 38.1058L88.9706 55.4212C90.3466 59.0142 91.3404 62.569 91.952 66.0856L92.1814 67.691H93.7868C94.3984 63.8686 95.4686 59.8551 96.9976 55.6505L103.075 38.6792C100.247 37.6089 98.259 36.3093 97.1122 34.7803L98.259 25.9506H123.487L124.633 34.7803C123.257 36.5386 120.735 38.0293 117.065 39.2525ZM128.647 34.7803L129.794 25.9506C134.075 24.9568 138.05 24.4599 141.719 24.4599C145.389 24.4599 148.485 24.5746 151.008 24.8039V70.5578C153.974 71.7045 156.076 73.0041 157.315 74.4566L156.168 83.2863H129.794L128.647 74.4566C129.717 73.0041 131.819 71.7045 134.954 70.5578V38.6792C132.278 37.7618 130.176 36.4622 128.647 34.7803ZM142.797 18.0383C136.422 18.0383 133.234 15.1486 133.234 9.36915C133.234 3.605 136.422 0.722924 142.797 0.722924C149.188 0.722924 152.384 3.605 152.384 9.36915C152.384 15.1486 149.188 18.0383 142.797 18.0383ZM160.503 10.6993L161.649 1.86964C165.93 0.875819 169.906 0.378906 173.575 0.378906C177.245 0.378906 180.341 0.493581 182.864 0.722924V70.5578C185.845 71.7045 187.947 73.0041 189.17 74.4566L188.024 83.2863H161.649L160.503 74.4566C161.573 73.0041 163.675 71.7045 166.81 70.5578V14.5982C164.134 13.6808 162.032 12.3812 160.503 10.6993ZM274.027 63.3335V83.2863H221.508L220.361 73.7686C221.355 72.469 223.457 71.2076 226.668 69.9844V17.5796C223.534 16.4329 221.431 15.1333 220.361 13.6808L221.508 4.16307H248.341L249.488 13.6808C248.264 15.1333 246.162 16.4329 243.181 17.5796V70.7871H261.299C262.293 66.8119 263.707 63.9833 265.542 62.3015L274.027 63.3335ZM304.759 84.2037C295.585 84.2037 288.682 81.7574 284.05 76.8647C279.432 71.9721 277.123 64.8625 277.123 55.5358C277.123 49.8787 277.926 45.0014 279.532 40.9038C281.137 36.8215 283.316 33.6718 286.068 31.4549C291.419 27.1738 297.65 25.0333 304.759 25.0333C311.869 25.0333 317.312 26.8451 321.088 30.4687C324.88 34.1076 326.776 40.6286 326.776 50.0316C326.776 55.5358 324.062 58.288 318.634 58.288H293.751C294.057 63.1042 295.295 66.5061 297.466 68.4937C299.652 70.4813 303.116 71.4752 307.855 71.4752C310.455 71.4752 312.939 71.1694 315.309 70.5578C317.679 69.9462 319.399 69.3346 320.469 68.7231L322.075 67.8057L325.515 76.9794C325.056 77.5145 324.383 78.1796 323.496 78.9747C322.625 79.785 320.408 80.8553 316.846 82.1855C313.298 83.531 309.27 84.2037 304.759 84.2037ZM293.865 48.7702L311.983 48.0822C312.136 47.0119 312.213 45.7123 312.213 44.1834C312.213 42.6544 311.601 41.0261 310.378 39.2984C309.155 37.586 307.03 36.7297 304.002 36.7297C300.99 36.7297 298.682 37.6471 297.076 39.4819C295.471 41.3166 294.401 44.4127 293.865 48.7702ZM387.185 39.2525L368.264 83.9743H355.65L336.844 39.2525C333.022 38.0293 330.461 36.5386 329.161 34.7803L330.308 25.9506H356.682L357.829 34.7803C356.835 36.0035 355.192 37.112 352.898 38.1058L359.091 55.4212C360.467 59.0142 361.46 62.569 362.072 66.0856L362.301 67.691H363.907C364.518 63.8686 365.589 59.8551 367.118 55.6505L373.195 38.6792C370.367 37.6089 368.379 36.3093 367.232 34.7803L368.379 25.9506H393.607L394.753 34.7803C393.377 36.5386 390.854 38.0293 387.185 39.2525Z" fill="white"/>
<path d="M3.52817 139.554C2.54704 138.909 1.75654 137.891 1.15665 136.501C0.55116 135.116 0.248413 133.429 0.248413 131.438C0.248413 127.766 1.18749 124.963 3.06564 123.029C5.05592 120.954 7.32652 119.917 9.87744 119.917C11.4472 119.917 13.0451 120.324 14.6709 121.136V111.676H11.8537V109.573H17.4041V139.007H20.6418V141.109H15.0914L14.755 139.764C13.1572 140.773 11.3211 141.278 9.24671 141.278C7.17234 141.278 5.26616 140.703 3.52817 139.554ZM14.6709 137.703V122.945C13.3814 122.552 12.1621 122.356 11.0127 122.356C8.60198 122.356 6.66216 123.146 5.19327 124.727C3.71879 126.314 2.98154 128.537 2.98154 131.396C2.98154 132.91 3.20019 134.191 3.63749 135.239C4.06919 136.293 4.64945 137.073 5.37829 137.577C6.63973 138.418 8.11142 138.839 9.79334 138.839C11.4753 138.839 13.1011 138.46 14.6709 137.703ZM25.1409 131.691C25.1409 134.185 25.8557 135.999 27.2854 137.132C28.715 138.27 30.3829 138.839 32.2891 138.839C33.5225 138.839 34.7896 138.718 36.0902 138.477C37.3965 138.242 38.2599 138.026 38.6804 137.83L39.227 139.806C38.5823 140.226 37.5227 140.577 36.0482 140.857C34.5793 141.137 33.2338 141.278 32.0116 141.278C30.795 141.278 29.7017 141.151 28.7318 140.899C27.7675 140.647 26.7808 140.198 25.7716 139.554C24.7625 138.909 23.9636 137.9 23.3749 136.526C22.7862 135.153 22.4919 133.471 22.4919 131.48C22.4919 127.78 23.445 124.949 25.3512 122.987C27.3414 120.94 29.6541 119.917 32.2891 119.917C34.9241 119.917 36.934 120.646 38.3188 122.104C39.7092 123.561 40.4044 125.608 40.4044 128.243C40.4044 128.803 40.3623 129.406 40.2782 130.051H25.2671C25.183 130.639 25.1409 131.186 25.1409 131.691ZM37.8815 127.948C37.8815 126.21 37.3629 124.87 36.3257 123.928C35.2885 122.992 34.0831 122.524 32.7096 122.524C30.8314 122.524 29.2756 123.09 28.0422 124.223C26.8088 125.361 25.9819 126.757 25.5614 128.411H37.8815C37.8815 128.243 37.8815 128.088 37.8815 127.948ZM59.1158 122.188H56.7611V120.085H64.498V122.188H62.0171L54.4064 141.109H51.8835L44.8615 122.188H42.0022V120.085H50.8744V122.188H47.931L53.2711 137.872L59.1158 122.188ZM67.9375 131.691C67.9375 134.185 68.6523 135.999 70.082 137.132C71.5116 138.27 73.1795 138.839 75.0857 138.839C76.3191 138.839 77.589 138.718 78.8952 138.477C80.1959 138.242 81.0565 138.026 81.477 137.83L82.0236 139.806C81.3789 140.226 80.3221 140.577 78.8532 140.857C77.3787 141.137 76.0332 141.278 74.8166 141.278C73.5944 141.278 72.5011 141.151 71.5368 140.899C70.5669 140.647 69.5774 140.198 68.5682 139.554C67.5591 138.909 66.7602 137.9 66.1715 136.526C65.5828 135.153 65.2885 133.471 65.2885 131.48C65.2885 127.78 66.2416 124.949 68.1477 122.987C70.138 120.94 72.4507 119.917 75.0857 119.917C77.7207 119.917 79.7334 120.646 81.1238 122.104C82.5086 123.561 83.201 125.608 83.201 128.243C83.201 128.803 83.1589 129.406 83.0748 130.051H68.0637C67.9796 130.639 67.9375 131.186 67.9375 131.691ZM80.6781 127.948C80.6781 126.21 80.1595 124.87 79.1223 123.928C78.0851 122.992 76.8797 122.524 75.5062 122.524C73.628 122.524 72.0722 123.09 70.8388 124.223C69.6054 125.361 68.7785 126.757 68.358 128.411H80.6781C80.6781 128.243 80.6781 128.088 80.6781 127.948ZM89.1718 111.676H86.3546V109.573H91.9049V139.007H95.0586V141.109H86.5648V139.007H89.1718V111.676ZM105.924 141.278C102.997 141.278 100.629 140.437 98.8177 138.755C97.0124 137.073 96.1098 134.499 96.1098 131.035C96.1098 127.575 97.0685 124.856 98.9859 122.877C100.909 120.904 103.328 119.917 106.243 119.917C109.159 119.917 111.527 120.758 113.35 122.44C115.172 124.122 116.083 126.692 116.083 130.152C116.083 133.616 115.121 136.335 113.198 138.309C111.281 140.288 108.856 141.278 105.924 141.278ZM106.176 122.356C104.091 122.356 102.347 123.113 100.945 124.626C99.5437 126.14 98.8429 128.192 98.8429 130.782C98.8429 133.378 99.5072 135.368 100.836 136.753C102.17 138.144 103.889 138.839 105.991 138.839C108.093 138.839 109.845 138.087 111.247 136.585C112.649 135.088 113.35 133.042 113.35 130.446C113.35 127.856 112.677 125.86 111.331 124.458C109.986 123.057 108.267 122.356 106.176 122.356ZM121.633 122.188H118.816V120.085H124.366V121.641C126.132 120.352 128.01 119.707 130.001 119.707C131.907 119.707 133.701 120.296 135.383 121.473C136.28 122.118 137 123.127 137.544 124.5C138.093 125.874 138.368 127.542 138.368 129.504C138.368 133.232 137.443 136.036 135.593 137.914C133.491 140.044 130.771 141.109 127.436 141.109C126.455 141.109 125.431 141.039 124.366 140.899V149.519H127.94V151.621H119.026V149.519H121.633V122.188ZM124.366 123.365V138.755C125.179 138.951 126.062 139.049 127.015 139.049C129.79 139.049 131.921 138.236 133.406 136.61C134.892 134.984 135.635 132.686 135.635 129.714C135.635 126.266 134.626 124.01 132.608 122.945C131.626 122.412 130.491 122.146 129.202 122.146C127.912 122.146 126.3 122.552 124.366 123.365ZM162.411 141.109H153.918V139.007H156.525V126.645C156.525 123.926 155.011 122.566 151.983 122.566C150.385 122.594 148.591 123.127 146.601 124.164V139.007H149.797V141.109H141.303V139.007H143.868V122.188H141.093V120.085H146.643V122.188H146.601V122.314C148.928 120.856 151.058 120.071 152.992 119.959C155.656 119.959 157.464 120.716 158.417 122.23C160.855 120.828 163.154 120.071 165.313 119.959C167.275 119.959 168.761 120.366 169.77 121.179C170.246 121.543 170.661 122.109 171.014 122.877C171.362 123.651 171.536 124.57 171.536 125.636V139.007H174.647V141.109H166.154V139.007H168.803V126.687C168.803 123.94 167.303 122.566 164.303 122.566C162.678 122.594 160.954 123.099 159.132 124.08C159.216 124.556 159.258 125.075 159.258 125.636V139.007H162.411V141.109ZM179.231 131.691C179.231 134.185 179.945 135.999 181.375 137.132C182.805 138.27 184.473 138.839 186.379 138.839C187.612 138.839 188.882 138.718 190.188 138.477C191.489 138.242 192.35 138.026 192.77 137.83L193.317 139.806C192.672 140.226 191.615 140.577 190.146 140.857C188.672 141.137 187.323 141.278 186.101 141.278C184.885 141.278 183.794 141.151 182.83 140.899C181.86 140.647 180.87 140.198 179.861 139.554C178.852 138.909 178.053 137.9 177.464 136.526C176.876 135.153 176.581 133.471 176.581 131.48C176.581 127.78 177.535 124.949 179.441 122.987C181.431 120.94 183.744 119.917 186.379 119.917C189.014 119.917 191.024 120.646 192.408 122.104C193.799 123.561 194.494 125.608 194.494 128.243C194.494 128.803 194.452 129.406 194.368 130.051H179.357C179.273 130.639 179.231 131.186 179.231 131.691ZM191.971 127.948C191.971 126.21 191.453 124.87 190.415 123.928C189.378 122.992 188.173 122.524 186.799 122.524C184.921 122.524 183.365 123.09 182.132 124.223C180.898 125.361 180.071 126.757 179.651 128.411H191.971C191.971 128.243 191.971 128.088 191.971 127.948ZM200.044 122.188H197.227V120.085H202.777V122.44C205.076 120.87 207.277 120.043 209.379 119.959C211.425 119.959 212.981 120.366 214.046 121.179C214.523 121.543 214.949 122.109 215.325 122.877C215.706 123.651 215.896 124.57 215.896 125.636V139.007H219.134V141.109H210.64V139.007H213.163V126.687C213.163 123.968 211.566 122.608 208.37 122.608C206.632 122.664 204.768 123.239 202.777 124.332V139.007H205.931V141.109H197.437V139.007H200.044V122.188ZM229.52 139.049L231.16 138.965L231.286 140.647C231.258 140.647 231.062 140.689 230.697 140.773C229.856 140.969 228.917 141.067 227.88 141.067C226.927 141.011 226.058 140.849 225.273 140.58C224.488 140.316 223.76 139.755 223.087 138.898C222.414 138.045 222.078 136.947 222.078 135.601V122.524H219.933L220.27 120.506L222.12 120.127L222.456 116.091L224.811 115.88V120.085H229.899V122.524H224.811V134.886C224.811 137.661 226.381 139.049 229.52 139.049Z" fill="white"/>
</svg>
