<?xml version="1.0" encoding="utf-8"?>
<!-- Generator: Adobe Illustrator 23.0.1, SVG Export Plug-In . SVG Version: 6.00 Build 0)  -->
<svg version="1.1" id="Layer_1" xmlns="http://www.w3.org/2000/svg" xmlns:xlink="http://www.w3.org/1999/xlink" x="0px" y="0px"
	 viewBox="0 0 3496 1220.4" style="enable-background:new 0 0 3496 1220.4;" xml:space="preserve" fill="#fff">
<style type="text/css">
	.st0{clip-path:url(#SVGID_2_);}
</style>
<polygon points="5.1,6.9 409,6.9 409,869.8 976.8,869.8 976.8,1215 5.1,1215 "/>
<polygon points="1064.9,6.9 2095.2,6.9 2095.2,338.3 1461.8,338.3 1461.8,460.8 2052.1,460.8 2052.1,752.5 1461.8,752.5 
	1461.8,883.7 2103.8,883.7 2103.8,1215 1064.9,1215 "/>
<polygon points="2124.6,6.9 2576.8,6.9 2811.5,680.4 3046.2,6.9 3491.5,6.9 3001.3,1215 2614.7,1215 "/>
<g>
	<defs>
		<rect id="SVGID_1_" x="-689.2" y="-790" width="4932.3" height="2834.6"/>
	</defs>
	<clipPath id="SVGID_2_">
		<use xlink:href="#SVGID_1_"  style="overflow:visible;"/>
	</clipPath>
	<path class="st0" d="M475.3,17.3h61c51.4,0,86.9,35.3,86.9,81.3v0.5c0,46-35.5,81.8-86.9,81.8h-61V17.3z M536.3,154.7
		c34.3,0,56.8-23.1,56.8-55.1v-0.5c0-32-22.4-55.6-56.8-55.6H504v111.2H536.3z"/>
	<polygon class="st0" points="658,17.3 779.2,17.3 779.2,43 686.7,43 686.7,85.5 768.7,85.5 768.7,111.2 686.7,111.2 686.7,155.1 
		780.4,155.1 780.4,180.8 658,180.8 	"/>
	<polygon class="st0" points="805.1,17.3 836.9,17.3 886.2,143 935.3,17.3 966.4,17.3 898.4,182 873.1,182 	"/>
	<polygon class="st0" points="475.3,230.8 596.6,230.8 596.6,256.5 504,256.5 504,299.1 586,299.1 586,324.8 504,324.8 504,368.7 
		597.7,368.7 597.7,394.4 475.3,394.4 	"/>
	<polygon class="st0" points="664.5,230.8 693.3,230.8 693.3,368.2 779.2,368.2 779.2,394.4 664.5,394.4 	"/>
	<path class="st0" d="M801.9,313.1v-0.5c0-46,35.5-84.6,85.8-84.6c50.2,0,85.3,38.1,85.3,84.1v0.5c0,46-35.5,84.6-85.8,84.6
		C836.9,397.2,801.9,359.1,801.9,313.1 M942.8,313.1v-0.5c0-31.8-23.1-58.2-55.6-58.2c-32.5,0-55.1,25.9-55.1,57.7v0.5
		c0,31.8,23.1,58.2,55.6,58.2C920.1,370.8,942.8,344.9,942.8,313.1"/>
	<path class="st0" d="M475.3,444.4h190.1c38.1,0,62.2,21.7,62.2,54.7v0.5c0,36.7-29.4,55.8-65.4,55.8H504v52.6h-28.7V444.4z
		 M663.1,529.4c21.7,0,35.3-12.1,35.3-29.2v-0.5c0-19.2-13.8-29.2-35.3-29.2H504v58.9H663.1z"/>
	<polygon class="st0" points="753.8,444.4 784.4,444.4 859.3,527 934.2,444.4 964.8,444.4 964.8,607.9 936,607.9 936,483.8 
		859.3,567.8 858.3,567.8 782,484.3 782,607.9 753.8,607.9 	"/>
	<polygon class="st0" points="475.3,657.9 596.6,657.9 596.6,683.6 504,683.6 504,726.2 586,726.2 586,751.9 504,751.9 504,795.8 
		597.7,795.8 597.7,821.5 475.3,821.5 	"/>
	<polygon class="st0" points="650.5,657.9 677.1,657.9 764.8,771 764.8,657.9 793,657.9 793,821.5 769,821.5 678.8,705.1 
		678.8,821.5 650.5,821.5 	"/>
	<polygon class="st0" points="884.6,684.6 832.7,684.6 832.7,657.9 965.4,657.9 965.4,684.6 913.6,684.6 913.6,821.5 884.6,821.5 	
		"/>
</g>
</svg>
