<svg width="357" height="163" viewBox="0 0 357 163" fill="none" xmlns="http://www.w3.org/2000/svg">
<g clip-path="url(#clip0_223_169)">
<path fill-rule="evenodd" clip-rule="evenodd" d="M0 162.077V0H356.121V162.077H0ZM3.28296 158.794V3.2832H352.837V158.794H3.28296ZM9.8501 9.8501V152.227H346.271V9.8501H9.8501Z" fill="#3D3839"/>
<path d="M19.718 90.3662V24.356H62.6292V32.847H28.5742V52.933H58.9772V61.424H28.5742V81.8753H63.9074V90.3662H19.718ZM92.9409 91.4618H92.4844L71.4853 52.5678H81.5284L95.7712 82.6057L90.5671 82.4231L103.623 52.5678H113.118L92.9409 91.4618ZM122.248 90.3662V52.5678H130.739V90.3662H122.248ZM121.609 38.8728C121.609 37.5337 122.139 36.4077 123.198 35.4947C124.269 34.5817 125.444 34.1252 126.722 34.1252C128 34.1252 129.138 34.5817 130.137 35.4947C131.147 36.4077 131.652 37.5337 131.652 38.8728C131.652 40.2727 131.147 41.4109 130.137 42.2874C129.138 43.1761 128 43.6204 126.722 43.6204C125.444 43.6204 124.269 43.1639 123.198 42.2509C122.139 41.3379 121.609 40.2119 121.609 38.8728ZM145.42 90.3662V19.6997H153.911V90.3662H145.42ZM199.562 90.3662V24.356H208.418V81.8753H241.925V90.3662H199.562ZM271.78 91.2792C267.459 91.2792 263.746 90.4088 260.641 88.668C257.537 86.9394 255.145 84.5656 253.465 81.5466C251.798 78.5398 250.964 75.0886 250.964 71.1931C250.964 67.4802 251.907 64.1021 253.794 61.0588C255.681 58.0154 258.201 55.5808 261.354 53.7548C264.531 51.9287 268.067 51.0157 271.963 51.0157C276.954 51.0157 281.093 52.4765 284.38 55.3982C287.666 58.3198 289.888 62.337 291.044 67.4498L259.911 78.4059L257.902 73.3843L283.467 64.0717L281.641 65.2586C280.898 63.25 279.681 61.497 277.989 59.9997C276.284 58.5145 274.063 57.772 271.324 57.772C269.011 57.772 266.941 58.3319 265.115 59.4519C263.289 60.584 261.859 62.124 260.824 64.0717C259.789 66.0194 259.272 68.2411 259.272 70.7366C259.272 73.3539 259.814 75.6486 260.897 77.6207C262.005 79.6049 263.514 81.1631 265.426 82.2952C267.349 83.4152 269.528 83.9752 271.963 83.9752C273.606 83.9752 275.201 83.6708 276.747 83.0622C278.305 82.4535 279.754 81.6622 281.093 80.6884L285.019 86.9881C283.132 88.2663 281.014 89.301 278.664 90.0923C276.327 90.8836 274.032 91.2792 271.78 91.2792ZM316.225 91.4618H315.769L294.77 52.5678H304.813L319.055 82.6057L313.851 82.4231L326.907 52.5678H336.403L316.225 91.4618Z" fill="white"/>
<path d="M35.5322 131.29H40.4549V129.56H37.1731V98.0283H32.2061V99.7579H35.3548V114.482C35.3548 115.28 35.3548 115.93 35.3548 116.433C35.3548 116.936 35.3696 117.586 35.3992 118.384C35.1626 117.882 34.8522 117.394 34.4678 116.921C34.0835 116.448 33.5809 116.004 32.96 115.59C32.3391 115.206 31.6384 114.896 30.8579 114.659C30.0714 114.423 29.2643 114.304 28.4364 114.304C27.1946 114.304 26.0504 114.532 25.0038 114.987C23.9513 115.449 23.0259 116.063 22.2276 116.832C21.4293 117.601 20.8084 118.517 20.3649 119.582C19.9215 120.646 19.6997 121.77 19.6997 122.952C19.6997 124.165 19.9215 125.288 20.3649 126.323C20.8084 127.358 21.4293 128.274 22.2276 129.072C23.0259 129.871 23.9513 130.492 25.0038 130.935C26.0504 131.379 27.1946 131.6 28.4364 131.6C29.3234 131.6 30.1601 131.482 30.9466 131.246C31.7271 131.009 32.4278 130.684 33.0487 130.27C33.64 129.886 34.1515 129.448 34.5831 128.957C35.0089 128.472 35.3253 127.964 35.5322 127.432C35.5322 127.816 35.5322 128.162 35.5322 128.469C35.5322 128.783 35.5322 129.117 35.5322 129.472V131.29ZM28.4364 116.078C29.353 116.078 30.2251 116.241 31.053 116.566C31.8808 116.891 32.6052 117.35 33.2261 117.941C33.8765 118.562 34.3939 119.307 34.7783 120.176C35.1626 121.051 35.3548 121.977 35.3548 122.952C35.3548 123.928 35.1715 124.845 34.8049 125.702C34.4324 126.559 33.9209 127.284 33.2704 127.875C32.62 128.496 31.8897 128.975 31.0796 129.312C30.2636 129.655 29.3825 129.826 28.4364 129.826C27.4607 129.826 26.5679 129.655 25.7577 129.312C24.9417 128.975 24.2233 128.496 23.6024 127.875C22.9519 127.284 22.4405 126.559 22.0679 125.702C21.7013 124.845 21.518 123.928 21.518 122.952C21.518 122.006 21.6954 121.11 22.0502 120.265C22.405 119.425 22.8928 118.695 23.5137 118.074C24.1346 117.453 24.8589 116.965 25.6868 116.61C26.5146 116.256 27.4312 116.078 28.4364 116.078ZM60.2788 116.078C61.4319 116.078 62.4756 116.398 63.4098 117.036C64.3382 117.669 65.0685 118.488 65.6007 119.493C63.5902 120.291 61.5886 121.081 59.5958 121.861C57.5972 122.648 55.5926 123.44 53.5822 124.238C53.3752 123.233 53.39 122.249 53.6265 121.285C53.863 120.327 54.277 119.464 54.8683 118.695C55.4892 117.897 56.2667 117.261 57.201 116.788C58.1294 116.315 59.1553 116.078 60.2788 116.078ZM66.0885 129.294L64.9798 127.964C64.3589 128.555 63.6493 129.013 62.851 129.339C62.0528 129.664 61.1954 129.826 60.2788 129.826C58.8892 129.826 57.6475 129.472 56.5535 128.762C55.4596 128.052 54.6465 127.121 54.1143 125.968C56.4205 125.022 58.7207 124.105 61.015 123.218C63.3034 122.331 65.6007 121.43 67.9068 120.513C67.6111 119.626 67.2268 118.804 66.7537 118.047C66.2807 117.296 65.7337 116.655 65.1128 116.123C64.4624 115.531 63.7232 115.079 62.8954 114.766C62.0675 114.458 61.1954 114.304 60.2788 114.304C59.0666 114.304 57.9372 114.532 56.8906 114.987C55.838 115.449 54.9126 116.063 54.1143 116.832C53.3161 117.601 52.6952 118.517 52.2517 119.582C51.8082 120.646 51.5865 121.77 51.5865 122.952C51.5865 124.165 51.8082 125.288 52.2517 126.323C52.6952 127.358 53.3161 128.274 54.1143 129.072C54.9126 129.871 55.838 130.492 56.8906 130.935C57.9372 131.379 59.0666 131.6 60.2788 131.6C61.4319 131.6 62.4963 131.393 63.4719 130.979C64.4476 130.566 65.3198 130.004 66.0885 129.294ZM98.9154 116.389H102.153V114.659H94.3919V116.389H97.0085C95.9145 118.547 94.8206 120.691 93.7266 122.819C92.6327 124.948 91.6423 127.003 90.7553 128.984C89.7796 126.885 88.7596 124.785 87.6952 122.686C86.6308 120.587 85.5517 118.488 84.4578 116.389H87.3848V114.659H79.1803V116.389H82.5951C83.9551 119.079 85.3152 121.74 86.6752 124.371C88.0352 127.003 89.3953 129.649 90.7553 132.31C92.1153 129.649 93.4753 127.003 94.8354 124.371C96.1954 121.74 97.5554 119.079 98.9154 116.389ZM121.977 116.078C123.13 116.078 124.171 116.398 125.099 117.036C126.033 117.669 126.766 118.488 127.299 119.493C125.288 120.291 123.284 121.081 121.285 121.861C119.292 122.648 117.291 123.44 115.28 124.238C115.073 123.233 115.088 122.249 115.324 121.285C115.561 120.327 115.975 119.464 116.566 118.695C117.187 117.897 117.962 117.261 118.89 116.788C119.824 116.315 120.853 116.078 121.977 116.078ZM127.786 129.294L126.678 127.964C126.057 128.555 125.347 129.013 124.549 129.339C123.751 129.664 122.893 129.826 121.977 129.826C120.587 129.826 119.345 129.472 118.252 128.762C117.158 128.052 116.345 127.121 115.812 125.968C118.118 125.022 120.416 124.105 122.704 123.218C124.998 122.331 127.299 121.43 129.605 120.513C129.309 119.626 128.925 118.804 128.452 118.047C127.979 117.296 127.432 116.655 126.811 116.123C126.16 115.531 125.421 115.079 124.593 114.766C123.766 114.458 122.893 114.304 121.977 114.304C120.765 114.304 119.632 114.532 118.58 114.987C117.533 115.449 116.611 116.063 115.812 116.832C115.014 117.601 114.393 118.517 113.95 119.582C113.506 120.646 113.284 121.77 113.284 122.952C113.284 124.165 113.506 125.288 113.95 126.323C114.393 127.358 115.014 128.274 115.812 129.072C116.611 129.871 117.533 130.492 118.58 130.935C119.632 131.379 120.765 131.6 121.977 131.6C123.13 131.6 124.194 131.393 125.17 130.979C126.146 130.566 127.018 130.004 127.786 129.294ZM140.869 131.29H149.429V129.56H145.969V98.0283H141.002V99.7579H144.151V129.56H140.869V131.29ZM175.55 129.072C176.319 128.274 176.934 127.358 177.395 126.323C177.85 125.288 178.078 124.165 178.078 122.952C178.078 121.77 177.85 120.646 177.395 119.582C176.934 118.517 176.319 117.586 175.55 116.788C174.752 116.019 173.815 115.404 172.738 114.943C171.656 114.488 170.509 114.26 169.297 114.26C168.085 114.26 166.946 114.488 165.882 114.943C164.818 115.404 163.901 116.019 163.132 116.788C162.334 117.586 161.713 118.517 161.27 119.582C160.826 120.646 160.605 121.77 160.605 122.952C160.605 124.165 160.826 125.294 161.27 126.341C161.713 127.393 162.334 128.304 163.132 129.072C163.901 129.871 164.812 130.492 165.864 130.935C166.911 131.379 168.055 131.6 169.297 131.6C170.509 131.6 171.656 131.379 172.738 130.935C173.815 130.492 174.752 129.871 175.55 129.072ZM164.419 127.786C163.798 127.195 163.31 126.485 162.955 125.658C162.6 124.83 162.423 123.928 162.423 122.952C162.423 122.006 162.6 121.119 162.955 120.291C163.31 119.464 163.798 118.724 164.419 118.074C165.039 117.453 165.764 116.965 166.592 116.61C167.419 116.256 168.306 116.078 169.253 116.078C170.199 116.078 171.095 116.256 171.94 116.61C172.78 116.965 173.51 117.453 174.131 118.074C174.781 118.724 175.284 119.464 175.639 120.291C175.994 121.119 176.171 122.006 176.171 122.952C176.171 123.928 175.994 124.83 175.639 125.658C175.284 126.485 174.781 127.195 174.131 127.786C173.51 128.437 172.78 128.939 171.94 129.294C171.095 129.649 170.199 129.826 169.253 129.826C168.306 129.826 167.419 129.649 166.592 129.294C165.764 128.939 165.039 128.437 164.419 127.786ZM189.573 140.647V142.377H198.132V140.647H194.363V129.294C194.363 129.028 194.354 128.753 194.336 128.469C194.324 128.191 194.318 127.905 194.318 127.609C194.525 128.141 194.827 128.635 195.223 129.09C195.625 129.551 196.137 129.974 196.758 130.359C197.349 130.772 198.029 131.092 198.798 131.316C199.566 131.535 200.394 131.645 201.281 131.645C202.464 131.645 203.587 131.414 204.652 130.953C205.716 130.498 206.647 129.886 207.446 129.117C208.244 128.348 208.865 127.432 209.308 126.367C209.752 125.303 209.974 124.179 209.974 122.997C209.974 121.814 209.752 120.696 209.308 119.644C208.865 118.597 208.244 117.675 207.446 116.877C206.647 116.078 205.716 115.457 204.652 115.014C203.587 114.57 202.464 114.349 201.281 114.349C199.507 114.349 197.999 114.777 196.758 115.635C195.516 116.492 194.644 117.497 194.141 118.65C194.141 118 194.117 117.341 194.07 116.673C194.029 116.01 194.008 115.339 194.008 114.659H189.218V116.389H192.545V140.647H189.573ZM201.281 116.123C202.198 116.123 203.07 116.291 203.898 116.628C204.726 116.971 205.45 117.424 206.071 117.985C206.721 118.606 207.23 119.345 207.596 120.203C207.969 121.06 208.155 121.991 208.155 122.997C208.155 123.972 207.969 124.889 207.596 125.746C207.23 126.604 206.721 127.343 206.071 127.964C205.45 128.555 204.726 129.019 203.898 129.356C203.07 129.699 202.198 129.871 201.281 129.871C200.306 129.871 199.404 129.699 198.576 129.356C197.748 129.019 197.024 128.555 196.403 127.964C195.752 127.313 195.25 126.565 194.895 125.72C194.54 124.88 194.363 123.972 194.363 122.997C194.363 122.051 194.531 121.155 194.868 120.309C195.211 119.469 195.693 118.739 196.314 118.118C196.935 117.497 197.665 117.01 198.505 116.655C199.351 116.3 200.276 116.123 201.281 116.123ZM221.105 131.29H229.664V129.56H226.383V122.198C226.383 121.311 226.566 120.498 226.933 119.759C227.305 119.02 227.817 118.37 228.467 117.808C229.058 117.276 229.768 116.862 230.596 116.566C231.424 116.27 232.296 116.123 233.212 116.123C234.454 116.182 235.391 116.557 236.024 117.249C236.663 117.947 237.012 118.784 237.071 119.759V129.56H233.611V131.29H242.171V129.56H238.889V122.021C238.919 121.164 239.126 120.371 239.51 119.644C239.894 118.922 240.397 118.296 241.018 117.764C241.639 117.261 242.354 116.862 243.164 116.566C243.98 116.27 244.832 116.123 245.719 116.123C246.96 116.182 247.898 116.557 248.53 117.249C249.169 117.947 249.518 118.784 249.577 119.759V129.56H246.162V131.29H254.677V129.56H251.395V119.271C251.336 117.793 250.839 116.596 249.905 115.679C248.977 114.763 247.685 114.304 246.029 114.304C244.403 114.334 242.96 114.748 241.701 115.546C240.447 116.344 239.495 117.409 238.845 118.739C238.697 117.409 238.15 116.335 237.204 115.519C236.258 114.709 235.031 114.304 233.523 114.304C231.838 114.334 230.35 114.768 229.061 115.608C227.778 116.454 226.841 117.571 226.25 118.961C226.22 118.458 226.19 118.006 226.161 117.604C226.131 117.208 226.102 116.758 226.072 116.256L226.028 114.659H221.371V116.389H224.564V129.56H221.105V131.29ZM274.501 116.078C275.654 116.078 276.698 116.398 277.632 117.036C278.56 117.669 279.291 118.488 279.823 119.493C277.812 120.291 275.811 121.081 273.818 121.861C271.819 122.648 269.815 123.44 267.804 124.238C267.597 123.233 267.612 122.249 267.849 121.285C268.085 120.327 268.499 119.464 269.09 118.695C269.711 117.897 270.489 117.261 271.423 116.788C272.352 116.315 273.378 116.078 274.501 116.078ZM280.311 129.294L279.202 127.964C278.581 128.555 277.872 129.013 277.073 129.339C276.275 129.664 275.418 129.826 274.501 129.826C273.111 129.826 271.87 129.472 270.776 128.762C269.682 128.052 268.869 127.121 268.337 125.968C270.643 125.022 272.943 124.105 275.237 123.218C277.526 122.331 279.823 121.43 282.129 120.513C281.833 119.626 281.449 118.804 280.976 118.047C280.503 117.296 279.956 116.655 279.335 116.123C278.685 115.531 277.945 115.079 277.118 114.766C276.29 114.458 275.418 114.304 274.501 114.304C273.289 114.304 272.159 114.532 271.113 114.987C270.06 115.449 269.135 116.063 268.337 116.832C267.538 117.601 266.917 118.517 266.474 119.582C266.03 120.646 265.809 121.77 265.809 122.952C265.809 124.165 266.03 125.288 266.474 126.323C266.917 127.358 267.538 128.274 268.337 129.072C269.135 129.871 270.06 130.492 271.113 130.935C272.159 131.379 273.289 131.6 274.501 131.6C275.654 131.6 276.718 131.393 277.694 130.979C278.67 130.566 279.542 130.004 280.311 129.294ZM293.402 131.29H301.962V129.56H298.68V122.198C298.68 121.311 298.863 120.498 299.23 119.759C299.602 119.02 300.114 118.37 300.764 117.808C301.356 117.276 302.065 116.862 302.893 116.566C303.721 116.27 304.593 116.123 305.51 116.123C306.751 116.182 307.689 116.557 308.321 117.249C308.96 117.947 309.309 118.784 309.368 119.759V129.56H305.909V131.29H314.468V129.56H311.186V119.271C311.127 117.793 310.625 116.596 309.678 115.679C308.732 114.763 307.446 114.304 305.82 114.304C304.164 114.304 302.686 114.733 301.385 115.59C300.084 116.448 299.138 117.571 298.547 118.961C298.517 118.458 298.488 118.006 298.458 117.604C298.429 117.208 298.399 116.758 298.37 116.256L298.325 114.659H293.669V116.389H296.862V129.56H293.402V131.29ZM329.458 131.29H334.913V129.56H331.276V116.433H336.421V114.659H331.276V103.838H329.458V114.659H325.6V116.433H329.458V131.29Z" fill="white"/>
</g>
<defs>
<clipPath id="clip0_223_169">
<rect width="356.121" height="162.077" fill="white"/>
</clipPath>
</defs>
</svg>
