<?xml version="1.0" encoding="utf-8"?>
<!-- Generator: Adobe Illustrator 22.0.1, SVG Export Plug-In . SVG Version: 6.00 Build 0)  -->
<svg version="1.1" id="Шар_1" xmlns="http://www.w3.org/2000/svg" xmlns:xlink="http://www.w3.org/1999/xlink" x="0px" y="0px"
     width="26px" height="36px" viewBox="0 0 26 36" style="enable-background:new 0 0 26 36;" xml:space="preserve" fill="#cdb393">
<g>
	<path d="M17.2,3L23,8.3V16L13,30.7L3,16V8.3L8.8,3H17.2 M18.4,0H7.6L0,7V17l13,19l13-19V7L18.4,0L18.4,0z"/>
</g>
    <g>
	<path d="M14.2,10l1.8,1.8v2.5L14.2,16h-2.5L10,14.2v-2.5l1.8-1.8H14.2 M15.1,8h-4.1L8,10.9v4.1l2.9,2.9h4.1l2.9-2.9v-4.1L15.1,8
		L15.1,8z"/>
</g>
</svg>
