<?xml version="1.0" encoding="utf-8"?>
<!-- Generator: Adobe Illustrator 24.2.1, SVG Export Plug-In . SVG Version: 6.00 Build 0)  -->
<svg version="1.1" id="Layer_1" xmlns="http://www.w3.org/2000/svg" xmlns:xlink="http://www.w3.org/1999/xlink" x="0px" y="0px"
	 viewBox="0 0 681 100.5" style="enable-background:new 0 0 681 100.5;" xml:space="preserve">
<style type="text/css">
	.st0{fill-rule:evenodd;clip-rule:evenodd;fill:#FFFFFF;}
	.st1{fill:#E70000;}
</style>
<path class="st0" d="M464.6,0c-26.2,0-47.5,21.3-47.5,47.5c0,26.2,21.3,47.5,47.5,47.5s47.5-21.3,47.5-47.5
	C512.2,21.3,490.9,0,464.6,0z M464.6,80.1c-18.1,0-32.8-14.7-32.8-32.6c0-18,14.7-32.6,32.8-32.6c18,0,32.6,14.7,32.6,32.6
	C497.2,65.6,482.7,80.1,464.6,80.1z"/>
<polygon class="st0" points="630.2,17.3 630.2,40.1 670,40.1 670,55 630.2,55 630.2,77.7 675.9,77.7 675.9,92.6 615.5,92.6 
	615.5,2.5 675.9,2.5 675.9,17.3 "/>
<polygon class="st0" points="596.7,2.4 596.7,92.7 582.8,92.7 541.7,31.2 541.7,92.7 526.7,92.7 526.7,2.4 540.1,2.4 541.8,4.7 
	581.8,63.5 581.8,2.4 "/>
<polygon class="st0" points="409.9,2.4 409.9,17.4 381.3,17.4 381.3,92.7 366.3,92.7 366.3,17.4 337.7,17.4 337.7,2.4 "/>
<path class="st0" d="M330.5,68c-0.3,8.1-4.1,15.2-10.6,20.3l0,0l0,0c-6.2,4.6-14.1,6.8-22.5,6.8h0c-0.5,0-1.2,0-2-0.1
	c-9.1-0.3-17.3-3.3-23.5-9c-5.1-4.6-8.4-11.1-9.3-18.3l0-0.3v-5.7h14.5l0.4,4.8c0.6,3.5,2.3,6.7,4.9,9.1c3.2,2.9,7.7,4.5,13.9,4.8
	c6.2,0.2,11.1-1.2,14.4-3.5c3.2-2.3,4.8-5.5,4.9-9.1v-0.1c0.2-3.8-1.3-6.7-5.3-9.4c-3.7-2.5-8.9-4.1-13.8-5.6
	c-0.3-0.1-0.6-0.2-0.9-0.3l-2.7-0.8l-1.9-0.6c-4.5-1.4-10.7-3.3-15.8-6.9c-6.6-4.5-10.2-10.8-9.9-18.7c0.2-7.7,3.9-14.5,10.4-19
	c6.1-4.3,14.4-6.5,23-6.2h0c13.8,0.6,25.2,7.5,30,19.3l0,0.1l1.5,4.6l-14.1,3.9l-1.4-3.3c-2.4-5.8-8.4-9.7-16.5-10
	c-6.2-0.1-10.7,1.2-13.6,3.2c-2.9,2.1-4.3,4.7-4.4,8v0c0,1.3,0.3,2.4,0.9,3.3c0.6,1,1.8,2.1,3.7,3.3c3.8,2.3,9.2,4,14.5,5.6
	c0,0,0,0,0,0l1.4,0.4l0.1,0c0.2,0.1,0.4,0.1,0.6,0.2c5.2,1.6,12.2,3.8,18,7.7C326.8,51.4,330.9,58.9,330.5,68z"/>
<path class="st0" d="M205.4,2.4h-29.7v90.3h29.7c25,0,45.5-20.3,45.5-45.1C250.8,22.7,230.4,2.4,205.4,2.4z M205.4,77.8h-14.8V17.3
	h14.8c17,0,30.6,13.6,30.6,30.3C236,64.4,222.3,77.8,205.4,77.8z"/>
<polygon class="st0" points="112.6,17.3 112.6,40.1 152.3,40.1 152.3,55 112.6,55 112.6,77.7 158.2,77.7 158.2,92.6 97.8,92.6 
	97.8,2.5 158.2,2.5 158.2,17.3 "/>
<path class="st0" d="M82.3,92.6H64.7L45.5,61.1H21.8l-8.8-14.7h36.6c8,0,14.7-6.5,14.7-14.7c-0.1-8.1-6.7-14.6-14.7-14.6H9.1
	L0.3,2.6h49.2c16.1,0,29.1,13,29.1,29.1c0,11.6-6.8,22-17,26.7L82.3,92.6z"/>
<path class="st1" d="M3,74.6h18v13.1v4.9H3V74.6z"/>
</svg>
