<svg width="60" height="60" viewBox="0 0 60 60" fill="none" xmlns="http://www.w3.org/2000/svg">
<g clip-path="url(#clip0)">
<path d="M58.4067 12.2998L35.1854 12.9288L36.432 10.2597C36.6415 9.80849 36.6063 9.28209 36.3387 8.86236C36.0711 8.44263 35.6088 8.18849 35.1114 8.18795L16.135 8.20313C15.5696 8.20446 15.0567 8.53143 14.8169 9.04338L6.79342 26.2403C6.58376 26.6914 6.619 27.2178 6.88657 27.6375C7.15414 28.0573 7.61647 28.3114 8.1139 28.3119L11.0613 28.3109L0.690371 49.0926C0.463013 49.5482 0.488225 50.0914 0.762025 50.5209C1.03341 50.9519 1.51183 51.2097 2.02238 51.1983L41.2027 50.3859C41.4757 50.381 41.7342 50.2991 41.9551 50.1582C42.176 50.0174 42.3593 49.8177 42.4791 49.5722L59.7535 14.3963C59.9777 13.9358 59.9451 13.3973 59.6713 12.9678C59.395 12.5397 58.9157 12.2861 58.4067 12.2998ZM17.0652 11.1139L32.8287 11.1L26.1625 25.3846L10.399 25.3984L17.0652 11.1139ZM14.3147 28.3081L27.0904 28.2969C27.3729 28.2962 27.6444 28.2129 27.8727 28.0674C28.101 27.9219 28.291 27.711 28.4084 27.4566L33.8095 15.8771L36.0468 15.8179L29.2935 30.2962L13.3152 30.3089L14.3147 28.3081ZM4.36762 48.2329L11.8636 33.2192L27.9347 33.2061L21.0835 47.8881L4.36762 48.2329ZM40.2559 47.4927L24.3277 47.822L31.1477 33.2048L47.2777 33.1921L40.2559 47.4927ZM48.7086 30.2813L32.5051 30.2925L39.3006 15.7288L56.0769 15.2731L48.7086 30.2813Z" fill="url(#paint0_linear)"/>
</g>
<defs>
<linearGradient id="paint0_linear" x1="15.355" y1="8.43105" x2="41.9551" y2="50.1582" gradientUnits="userSpaceOnUse">
<stop stop-color="#74CF41"/>
<stop offset="1" stop-color="#0BB7BA"/>
</linearGradient>
<clipPath id="clip0">
<rect width="60" height="60" fill="white"/>
</clipPath>
</defs>
</svg>
