<svg width="39" height="50" viewBox="0 0 39 50" fill="none" xmlns="http://www.w3.org/2000/svg">
<path d="M33.2295 50H5.10449C2.52116 50 0.416992 47.8979 0.416992 45.3125V23.4375C0.416992 20.8521 2.52116 18.75 5.10449 18.75H33.2295C35.8128 18.75 37.917 20.8521 37.917 23.4375V45.3125C37.917 47.8979 35.8128 50 33.2295 50ZM5.10449 21.875C4.24408 21.875 3.54199 22.575 3.54199 23.4375V45.3125C3.54199 46.175 4.24408 46.875 5.10449 46.875H33.2295C34.0899 46.875 34.792 46.175 34.792 45.3125V23.4375C34.792 22.575 34.0899 21.875 33.2295 21.875H5.10449Z" fill="url(#paint0_linear)"/>
<path d="M30.1045 21.875C29.242 21.875 28.542 21.175 28.542 20.3125V12.5C28.542 7.33125 24.3357 3.125 19.167 3.125C13.9982 3.125 9.79199 7.33125 9.79199 12.5V20.3125C9.79199 21.175 9.09199 21.875 8.22949 21.875C7.36699 21.875 6.66699 21.175 6.66699 20.3125V12.5C6.66699 5.60625 12.2732 0 19.167 0C26.0607 0 31.667 5.60625 31.667 12.5V20.3125C31.667 21.175 30.967 21.875 30.1045 21.875Z" fill="url(#paint1_linear)"/>
<path d="M19.1667 35.4167C16.8687 35.4167 15 33.548 15 31.25C15 28.9521 16.8687 27.0834 19.1667 27.0834C21.4646 27.0834 23.3333 28.9521 23.3333 31.25C23.3333 33.548 21.4646 35.4167 19.1667 35.4167ZM19.1667 30.2084C18.5937 30.2084 18.125 30.675 18.125 31.25C18.125 31.825 18.5937 32.2917 19.1667 32.2917C19.7396 32.2917 20.2083 31.825 20.2083 31.25C20.2083 30.675 19.7396 30.2084 19.1667 30.2084Z" fill="url(#paint2_linear)"/>
<path d="M19.167 41.6667C18.3045 41.6667 17.6045 40.9667 17.6045 40.1042V34.375C17.6045 33.5125 18.3045 32.8125 19.167 32.8125C20.0295 32.8125 20.7295 33.5125 20.7295 34.375V40.1042C20.7295 40.9667 20.0295 41.6667 19.167 41.6667Z" fill="url(#paint3_linear)"/>
<defs>
<linearGradient id="paint0_linear" x1="19.167" y1="18.75" x2="19.167" y2="50" gradientUnits="userSpaceOnUse">
<stop stop-color="#74CF41"/>
<stop offset="1" stop-color="#0BB7BA"/>
</linearGradient>
<linearGradient id="paint1_linear" x1="19.167" y1="0" x2="19.167" y2="21.875" gradientUnits="userSpaceOnUse">
<stop stop-color="#74CF41"/>
<stop offset="1" stop-color="#0BB7BA"/>
</linearGradient>
<linearGradient id="paint2_linear" x1="19.1667" y1="27.0834" x2="19.1667" y2="35.4167" gradientUnits="userSpaceOnUse">
<stop stop-color="#74CF41"/>
<stop offset="1" stop-color="#0BB7BA"/>
</linearGradient>
<linearGradient id="paint3_linear" x1="19.167" y1="32.8125" x2="19.167" y2="41.6667" gradientUnits="userSpaceOnUse">
<stop stop-color="#74CF41"/>
<stop offset="1" stop-color="#0BB7BA"/>
</linearGradient>
</defs>
</svg>
