<svg width="48" height="60" viewBox="0 0 48 60" fill="none" xmlns="http://www.w3.org/2000/svg">
<path d="M20.5368 0.00152588H1.86698C0.835825 0.00152588 0 0.840899 0 1.87643V58.1237C0 59.1592 0.835825 59.9986 1.86698 59.9986H20.5368C21.568 59.9986 22.4038 59.1592 22.4038 58.1237V1.87643C22.4038 0.840899 21.5679 0.00152588 20.5368 0.00152588ZM18.6698 56.2488H3.73397V50.6241H13.0689V46.8742H3.73397V41.2495H9.33491V37.4997H3.73397V31.875H13.0689V28.1252H3.73397V22.5004H9.33491V18.7506H3.73397V13.1259H13.0689V9.37607H3.73397V3.75134H18.6698V56.2488Z" fill="url(#paint0_linear)"/>
<path d="M45.3682 47.4367L39.2071 53.6052V6.39496L45.3495 12.5634L47.982 9.91979L38.647 0.545247C37.9188 -0.181749 36.7428 -0.181749 36.0146 0.545247L26.6797 9.91979L29.3121 12.5634L35.4732 6.39496V53.6052L29.3308 47.4367L26.6984 50.0803L36.0333 59.4549C36.7615 60.1819 37.9375 60.1819 38.6657 59.4549L48.0006 50.0803L45.3682 47.4367Z" fill="url(#paint1_linear)"/>
<defs>
<linearGradient id="paint0_linear" x1="11.2019" y1="0.00152588" x2="11.2019" y2="59.9986" gradientUnits="userSpaceOnUse">
<stop stop-color="#74CF41"/>
<stop offset="1" stop-color="#0BB7BA"/>
</linearGradient>
<linearGradient id="paint1_linear" x1="37.3402" y1="0" x2="37.3402" y2="60.0001" gradientUnits="userSpaceOnUse">
<stop stop-color="#74CF41"/>
<stop offset="1" stop-color="#0BB7BA"/>
</linearGradient>
</defs>
</svg>
