<svg width="60" height="60" viewBox="0 0 60 60" fill="none" xmlns="http://www.w3.org/2000/svg">
<g clip-path="url(#clip0)">
<path d="M36.7859 24.4266L27.7709 32.9414L23.4443 28.4903C22.9647 27.9965 22.1749 27.9853 21.6816 28.4649C21.1878 28.9451 21.1765 29.7344 21.6562 30.2282L26.8453 35.555C27.3274 36.04 28.1064 36.0566 28.6085 35.5921L38.5242 26.2396C38.765 26.0125 38.9057 25.6989 38.915 25.3683C38.9243 25.0376 38.8017 24.7167 38.5741 24.4764C38.0915 23.9748 37.2958 23.9528 36.7859 24.4266Z" fill="url(#paint0_linear)"/>
<path d="M30.0967 11.3224C19.7936 11.3224 11.416 19.7 11.416 30.003C11.416 40.3065 19.7936 48.6842 30.0967 48.6842C40.4002 48.6842 48.7778 40.3065 48.7778 30.003C48.7778 19.7 40.4002 11.3224 30.0967 11.3224ZM30.0967 46.1834C21.1691 46.1834 13.9168 38.9184 13.9168 30.003C13.9168 21.0876 21.1691 13.8232 30.0967 13.8232C39.033 13.8232 46.277 21.0671 46.277 30.003C46.277 38.9389 39.033 46.1834 30.0967 46.1834Z" fill="url(#paint1_linear)"/>
<path d="M55.8051 23.1259L56.2178 15.711C56.2467 15.2133 55.9761 14.7458 55.5301 14.5231L48.928 11.1846L45.5895 4.58249C45.3624 4.14045 44.8979 3.87133 44.4016 3.89477L36.974 4.29529L30.7846 0.206119C30.3675 -0.0688691 29.8268 -0.0688691 29.4092 0.206119L23.2197 4.29529L15.8053 3.88256C15.3071 3.85326 14.8402 4.12385 14.6174 4.57028L11.2785 11.1724L4.67684 14.5109C4.23432 14.7375 3.96568 15.202 3.98913 15.6988L4.40137 23.1137L0.312686 29.3031C0.0376983 29.7202 0.0376983 30.2609 0.312686 30.6785L4.38915 36.8802L3.97643 44.2951C3.94761 44.7928 4.21771 45.2602 4.66414 45.483L11.2663 48.8214L14.6047 55.4236C14.8314 55.8661 15.2959 56.1347 15.7926 56.1113L23.2075 55.6986L29.397 59.7872C29.8116 60.071 30.3577 60.071 30.7724 59.7872L36.9618 55.6986L44.3767 56.1113C44.8745 56.1401 45.3414 55.8695 45.5646 55.4236L48.9031 48.8214L55.5052 45.483C55.9472 45.2558 56.2164 44.7918 56.1929 44.2951L55.7802 36.8802L59.8689 30.6907C60.1439 30.2736 60.1439 29.7324 59.8689 29.3153L55.8051 23.1259ZM53.4792 35.855C53.3268 36.0787 53.256 36.3478 53.2794 36.6179L53.6667 43.6323L47.4275 46.7832C47.1896 46.9024 46.9967 47.0958 46.8775 47.3336L43.7261 53.5729L36.7117 53.1856C36.4431 53.1758 36.1779 53.2452 35.9488 53.3853L30.0969 57.2493L24.2455 53.3853C24.0423 53.2481 23.8029 53.1738 23.5577 53.1729H23.4952L16.4803 53.5607L13.3294 47.3209C13.2103 47.0831 13.0173 46.8901 12.779 46.771L6.52703 43.6323L6.91485 36.6179C6.92461 36.3493 6.85477 36.084 6.71459 35.855L2.85108 30.003L6.71459 24.1511C6.86747 23.9279 6.93829 23.6583 6.91485 23.3887L6.52703 16.3738L12.7668 13.2229C13.0046 13.1037 13.1976 12.9108 13.3167 12.6729L16.4676 6.43316L23.4825 6.82098C23.7507 6.83026 24.0159 6.7609 24.2455 6.62072L30.0969 2.75721L35.9488 6.62072C36.1725 6.7736 36.4421 6.84442 36.7117 6.82098L43.7261 6.43316L46.8775 12.6729C46.9967 12.9108 47.1896 13.1037 47.4275 13.2229L53.6667 16.3738L53.2794 23.3887C53.2696 23.6568 53.3395 23.922 53.4792 24.1511L57.3432 30.003L53.4792 35.855Z" fill="url(#paint2_linear)"/>
</g>
<defs>
<linearGradient id="paint0_linear" x1="30.1096" y1="24.0852" x2="30.1096" y2="35.9299" gradientUnits="userSpaceOnUse">
<stop stop-color="#74CF41"/>
<stop offset="1" stop-color="#0BB7BA"/>
</linearGradient>
<linearGradient id="paint1_linear" x1="30.0969" y1="11.3224" x2="30.0969" y2="48.6842" gradientUnits="userSpaceOnUse">
<stop stop-color="#74CF41"/>
<stop offset="1" stop-color="#0BB7BA"/>
</linearGradient>
<linearGradient id="paint2_linear" x1="30.0908" y1="-0.00012207" x2="30.0908" y2="60.0001" gradientUnits="userSpaceOnUse">
<stop stop-color="#74CF41"/>
<stop offset="1" stop-color="#0BB7BA"/>
</linearGradient>
<clipPath id="clip0">
<rect width="60" height="60" fill="white"/>
</clipPath>
</defs>
</svg>
