<svg width="60" height="60" viewBox="0 0 60 60" fill="none" xmlns="http://www.w3.org/2000/svg">
<path d="M57.1875 1.875H2.8125C2.56386 1.875 2.3254 1.97377 2.14959 2.14959C1.97377 2.3254 1.875 2.56386 1.875 2.8125V6.5625C1.875 6.81114 1.97377 7.0496 2.14959 7.22541C2.3254 7.40123 2.56386 7.5 2.8125 7.5H11.25V22.5H8.4375C8.23383 22.5 8.0357 22.5664 7.87309 22.689C7.71048 22.8116 7.59222 22.9839 7.53621 23.1797L3.78621 36.3047C3.7463 36.4442 3.73933 36.5911 3.76585 36.7338C3.79236 36.8765 3.85164 37.011 3.93901 37.1269C4.02638 37.2428 4.13947 37.3368 4.26935 37.4016C4.39923 37.4663 4.54238 37.5 4.6875 37.5H7.5948C7.81099 38.5585 8.38617 39.5099 9.22305 40.1931C10.0599 40.8763 11.1071 41.2495 12.1875 41.2495C13.2679 41.2495 14.3151 40.8763 15.1519 40.1931C15.9888 39.5099 16.564 38.5585 16.7802 37.5H19.6875C19.8326 37.5 19.9758 37.4663 20.1056 37.4016C20.2355 37.3368 20.3486 37.2428 20.436 37.1269C20.5234 37.011 20.5826 36.8765 20.6092 36.7338C20.6357 36.5911 20.6287 36.4442 20.5888 36.3047L16.8388 23.1797C16.7828 22.9839 16.6645 22.8116 16.5019 22.689C16.3393 22.5664 16.1412 22.5 15.9375 22.5H13.125V7.5H29.0625V39.375H26.25C26.0463 39.375 25.8482 39.4414 25.6856 39.564C25.523 39.6866 25.4047 39.8589 25.3487 40.0547L21.5987 53.1797C21.5588 53.3192 21.5518 53.4661 21.5783 53.6088C21.6049 53.7515 21.6641 53.886 21.7515 54.0019C21.8389 54.1178 21.952 54.2118 22.0819 54.2766C22.2117 54.3413 22.3549 54.375 22.5 54.375H25.4073C25.6235 55.4335 26.1987 56.3849 27.0356 57.0681C27.8724 57.7513 28.9196 58.1245 30 58.1245C31.0804 58.1245 32.1276 57.7513 32.9644 57.0681C33.8013 56.3849 34.3765 55.4335 34.5927 54.375H37.5C37.6451 54.375 37.7883 54.3413 37.9181 54.2766C38.048 54.2118 38.1611 54.1178 38.2485 54.0019C38.3359 53.886 38.3951 53.7515 38.4217 53.6088C38.4482 53.4661 38.4412 53.3192 38.4013 53.1797L34.6513 40.0547C34.5953 39.8589 34.477 39.6866 34.3144 39.564C34.1518 39.4414 33.9537 39.375 33.75 39.375H30.9375V7.5H46.875V18.75H44.0625C43.8588 18.75 43.6607 18.8164 43.4981 18.939C43.3355 19.0616 43.2172 19.2339 43.1612 19.4297L39.4112 32.5547C39.3713 32.6942 39.3643 32.8411 39.3908 32.9838C39.4174 33.1265 39.4766 33.261 39.564 33.3769C39.6514 33.4928 39.7645 33.5868 39.8944 33.6515C40.0242 33.7163 40.1674 33.75 40.3125 33.75H43.2198C43.436 34.8085 44.0112 35.7599 44.8481 36.4431C45.6849 37.1263 46.7321 37.4995 47.8125 37.4995C48.8929 37.4995 49.9401 37.1263 50.7769 36.4431C51.6138 35.7599 52.189 34.8085 52.4052 33.75H55.3125C55.4576 33.75 55.6008 33.7163 55.7306 33.6515C55.8605 33.5868 55.9736 33.4928 56.061 33.3769C56.1484 33.261 56.2076 33.1265 56.2342 32.9838C56.2607 32.8411 56.2537 32.6942 56.2138 32.5547L52.4638 19.4297C52.4078 19.2339 52.2895 19.0616 52.1269 18.939C51.9643 18.8164 51.7662 18.75 51.5625 18.75H48.75V7.5H57.1875C57.4361 7.5 57.6746 7.40123 57.8504 7.22541C58.0262 7.0496 58.125 6.81114 58.125 6.5625V2.8125C58.125 2.56386 58.0262 2.3254 57.8504 2.14959C57.6746 1.97377 57.4361 1.875 57.1875 1.875ZM12.1875 39.375C11.6078 39.3732 11.0428 39.192 10.5702 38.8563C10.0976 38.5206 9.74043 38.0468 9.54785 37.5H14.8273C14.6347 38.0468 14.2775 38.5206 13.8049 38.8563C13.3322 39.192 12.7672 39.3732 12.1875 39.375ZM15.2303 24.375L18.4447 35.625H5.93027L9.14473 24.375H15.2303ZM30 56.25C29.4203 56.2482 28.8553 56.067 28.3827 55.7313C27.9101 55.3956 27.5529 54.9218 27.3604 54.375H32.6398C32.4472 54.9218 32.09 55.3956 31.6174 55.7313C31.1447 56.067 30.5797 56.2482 30 56.25ZM33.0428 41.25L36.2572 52.5H23.7428L26.9572 41.25H33.0428ZM47.8125 35.625C47.2328 35.6232 46.6678 35.442 46.1952 35.1063C45.7226 34.7706 45.3654 34.2968 45.1729 33.75H50.4523C50.2597 34.2968 49.9025 34.7706 49.4299 35.1063C48.9572 35.442 48.3922 35.6232 47.8125 35.625ZM50.8553 20.625L54.0697 31.875H41.5553L44.7697 20.625H50.8553ZM56.25 5.625H3.75V3.75H56.25V5.625Z" fill="url(#paint0_linear)"/>
<defs>
<linearGradient id="paint0_linear" x1="30" y1="1.875" x2="30" y2="58.1245" gradientUnits="userSpaceOnUse">
<stop stop-color="#74CF41"/>
<stop offset="1" stop-color="#0BB7BA"/>
</linearGradient>
</defs>
</svg>
