<svg width="104" height="95" viewBox="0 0 104 95" fill="none" xmlns="http://www.w3.org/2000/svg">
<path d="M88.4817 28.0065L60.3164 27.8036L61.9379 24.621C62.2105 24.0829 62.1897 23.4436 61.8829 22.9239C61.5761 22.4041 61.0264 22.0769 60.4236 22.0556L37.4277 21.2853C36.7426 21.2635 36.1074 21.6384 35.7955 22.2488L25.3581 42.7543C25.0853 43.2922 25.1061 43.9316 25.4129 44.4513C25.7197 44.9711 26.2694 45.2983 26.8722 45.3196L30.4438 45.4408L17.0128 70.1928C16.7183 70.7354 16.7263 71.3947 17.0402 71.9265C17.3512 72.4601 17.9202 72.7924 18.5394 72.7999L66.0513 73.4437C66.3824 73.4491 66.699 73.3605 66.9725 73.1991C67.2461 73.0376 67.4766 72.8032 67.6319 72.5107L90.0266 30.603C90.3175 30.0542 90.3004 29.4003 89.9864 28.8685C89.6694 28.3382 89.0991 28.0109 88.4817 28.0065ZM38.434 24.8512L57.5365 25.4896L48.8649 42.5224L29.7623 41.884L38.434 24.8512ZM34.3864 45.5726L49.8682 46.09C50.2106 46.1009 50.5431 46.0113 50.8258 45.8444C51.1084 45.6776 51.3474 45.4299 51.5004 45.1266L58.5266 31.3191L61.2401 31.3404L52.4548 48.6043L33.0921 47.9556L34.3864 45.5726ZM21.5045 69.3039L31.212 51.422L50.6873 52.074L41.775 69.5808L21.5045 69.3039ZM65.0242 69.8984L45.709 69.6355L54.5808 52.206L74.1275 52.8609L65.0242 69.8984ZM75.9824 49.3931L56.3468 48.7333L65.1868 31.3676L85.535 31.5126L75.9824 49.3931Z" fill="url(#paint0_linear)"/>
<defs>
<linearGradient id="paint0_linear" x1="36.4731" y1="21.5291" x2="66.9725" y2="73.1991" gradientUnits="userSpaceOnUse">
<stop stop-color="#74CF41"/>
<stop offset="1" stop-color="#0BB7BA"/>
</linearGradient>
</defs>
</svg>
